<?xml version="1.0" encoding="UTF-8"?>
<svg width="165px" height="249px" viewBox="0 0 165 249" version="1.1" xmlns="http://www.w3.org/2000/svg" xmlns:xlink="http://www.w3.org/1999/xlink">
    <!-- Generator: Sketch 54.1 (76490) - https://sketchapp.com -->
    <title>Group 39</title>
    <desc>Created with Sketch.</desc>
    <g id="Page-1" stroke="none" stroke-width="1" fill="none" fill-rule="evenodd">
        <g id="Artboard" transform="translate(-1098.000000, -620.000000)">
            <g id="Group-39" transform="translate(1101.000000, 633.000000)">
                <g id="Group-12-Copy">
                    <g id="Group-7-Copy">
                        <g id="Group-5">
                            <path d="M80,205.117371 C112.5848,205.117371 139,99.5848002 139,67 C139,34.4151998 112.5848,8 80,8 C47.4151998,8 21,34.4151998 21,67 C21,99.5848002 47.4151998,205.117371 80,205.117371 Z" id="Oval" fill="#FFFFFF"></path>
                            <ellipse id="Oval" stroke="#FE5F55" stroke-width="26" cx="79.5" cy="68.9" rx="69.0737705" ry="68.9"></ellipse>
                            <g id="Group-6" transform="translate(61.935403, 75.304302)" fill="#FE5F55" fill-rule="nonzero">
                                <path d="M57.1516478,166.56142 C64.4868847,166.567102 70.4290115,160.443043 70.4231441,152.883586 L52.58372,18.8699782 C52.5778526,11.3105208 46.6262121,5.17724869 39.2909752,5.17156664 C31.9557383,5.16588459 26.0136115,11.2899435 26.0194788,18.8494009 C33.3122279,73.6346285 38.7817897,114.723549 42.4281642,142.116163 C42.7461064,144.504636 44.1712263,148.729247 46.7035241,154.789995 C46.7106357,162.34817 49.8164108,166.555738 57.1516478,166.56142 Z" id="Path-Copy-13" transform="translate(48.221311, 85.866493) scale(-1, 1) rotate(-199.000000) translate(-48.221311, -85.866493) "></path>
                            </g>
                            <g id="Group-6-Copy" transform="translate(48.221311, 161.104302) scale(-1, 1) translate(-48.221311, -161.104302) translate(0.000000, 75.304302)" fill="#FE5F55" fill-rule="nonzero">
                                <path d="M57.1516478,166.56142 C64.4868847,166.567102 70.4290115,160.443043 70.4231441,152.883586 L52.58372,18.8699782 C52.5778526,11.3105208 46.6262121,5.17724869 39.2909752,5.17156664 C31.9557383,5.16588459 26.0136115,11.2899435 26.0194788,18.8494009 L43.858904,152.864292 C43.8660155,160.422467 49.8164108,166.555738 57.1516478,166.56142 Z" id="Path-Copy-13" transform="translate(48.221311, 85.866493) scale(-1, 1) rotate(-199.000000) translate(-48.221311, -85.866493) "></path>
                            </g>
                        </g>
                    </g>
                </g>
                <path d="M106,49.749004 L106,72.2709163 C106,72.6055777 105.887441,72.9203187 105.686442,73.1792829 L93.5220127,88.5856574 C92.9029372,89.3625498 92.5652598,90.3306773 92.5652598,91.3227092 L92.5652598,91.8645418 C92.5652598,93.0438247 91.6004669,94 90.4105558,94 L83.0178306,94 C81.6952605,94 80.6259484,92.940239 80.6259484,91.6294821 L80.6259484,78.8326693 C80.6259484,78.4741036 80.7545875,78.12749 80.9917657,77.8525896 L91.8014654,65.4302789 C92.3602413,64.8884462 93.0918758,64.5936255 93.87577,64.5936255 C94.6757441,64.5936255 95.4194386,64.9043825 95.9862544,65.4581673 C97.1520457,66.6135458 97.1520457,68.4900398 95.9862544,69.6454183 C95.9581146,69.6733068 95.9259548,69.7051793 95.897815,69.7410359 L91.9180446,74.4183267 C91.4396681,74.9840637 91.3874085,75.8326693 91.8778449,76.3864542 C92.5009402,77.0956175 93.5742723,77.063745 94.153148,76.3824701 L98.1449783,71.685259 C99.2504701,70.5697211 99.8172859,69.1115538 99.8373858,67.6454183 C99.8373858,67.6175299 99.8454257,67.5936255 99.8454257,67.5657371 L100.026324,49.6215139 C100.026324,47.8924303 101.521753,46.5099602 103.3026,46.6772908 C104.862348,46.8247012 106,48.2031873 106,49.749004 Z M67.1945146,65.4262948 L78.0082343,77.8565737 C78.2454125,78.123506 78.3740516,78.4701195 78.3740516,78.8247012 L78.3740516,91.7091633 C78.3740516,92.9681275 77.3449392,93.9920319 76.0706087,93.9920319 L68.9311417,93.9920319 C67.5522919,93.9920319 66.4347402,92.8844622 66.4347402,91.5179283 L66.4347402,91.314741 C66.4347402,90.3227092 66.0970628,89.3545817 65.4860273,88.5776892 L53.3135577,73.1713147 C53.1125592,72.9123506 53,72.5976096 53,72.2629482 L53,49.7410359 C53,48.1952191 54.1416715,46.8167331 55.69338,46.6693227 C57.4742268,46.501992 58.9696557,47.8844622 58.9696557,49.6294821 L59.1505543,67.5577689 C59.1505543,67.5657371 59.1505543,67.5657371 59.1505543,67.5737052 C59.1585943,69.1195219 59.7615898,70.5737052 60.8510017,71.6772908 L64.8428321,76.374502 C65.4217078,77.059761 66.5070997,77.0916335 67.1181352,76.374502 C67.6045516,75.8087649 67.540232,74.9521912 67.0578356,74.3864542 L63.098165,69.7330677 C63.0700252,69.6972112 63.0378655,69.6653386 63.0097257,69.6374502 C62.4509498,69.0836653 62.1373922,68.3346614 62.1373922,67.5458167 C62.1373922,66.7569721 62.4509498,66.0159363 63.0097257,65.4541833 C64.1634571,64.3187251 66.0287233,64.3027888 67.1945146,65.4262948 Z M88.487481,64.6494024 C86.6417299,64.6494024 85.129742,63.1513944 85.129742,61.3187251 L85.129742,51.7051793 C85.129742,49.876494 86.6417299,48.3784861 88.487481,48.3784861 C90.3332322,48.3784861 91.84522,49.876494 91.84522,51.7051793 L91.84522,61.3227092 C91.84522,63.1513944 90.3332322,64.6494024 88.487481,64.6494024 Z M79.5201062,61.7450199 C77.6703338,61.7450199 76.158346,60.2477656 76.1623672,58.4200004 L76.1623672,41.3250196 C76.1623672,39.4972543 77.6743551,38 79.5201062,38 C81.3658574,38 82.8778452,39.4972543 82.8778452,41.3250196 L82.8778452,58.4200004 C82.8778452,60.2477656 81.3658574,61.7450199 79.5201062,61.7450199 Z M79.5201142,70.6294821 C77.6703418,70.6294821 76.158354,69.1314741 76.1623752,67.3027888 C76.1623752,65.4741036 77.6743631,63.9760956 79.5201142,63.9760956 C81.3658654,63.9760956 82.8778532,65.4741036 82.8778532,67.3027888 C82.8778532,69.1314741 81.3658654,70.6294821 79.5201142,70.6294821 Z M70.5205615,54.2948207 C72.3663126,54.2948207 73.8783005,55.7928287 73.8783005,57.6215139 L73.8783005,61.3187251 C73.8783005,63.1474104 72.3663126,64.6454183 70.5205615,64.6454183 C68.6748103,64.6454183 67.1628225,63.1474104 67.1628225,61.3187251 L67.1628225,57.6215139 C67.1628225,55.7928287 68.6748103,54.2948207 70.5205615,54.2948207 Z M70.512519,45.4103586 C72.3582701,45.4103586 73.870258,46.9083665 73.870258,48.7370518 C73.870258,50.5657371 72.3582701,52.063745 70.512519,52.063745 C68.6667678,52.063745 67.15478,50.5657371 67.15478,48.7370518 C67.15478,46.9083665 68.6667678,45.4103586 70.512519,45.4103586 Z" id="Combined-Shape-Copy-4" fill="#FE5F55" fill-rule="nonzero"></path>
            </g>
        </g>
    </g>
</svg>