<?xml version="1.0" encoding="UTF-8"?>
<svg width="50px" height="50px" viewBox="0 0 50 50" version="1.1" xmlns="http://www.w3.org/2000/svg" xmlns:xlink="http://www.w3.org/1999/xlink">
    <!-- Generator: Sketch 54.1 (76490) - https://sketchapp.com -->
    <title>Group 10</title>
    <desc>Created with Sketch.</desc>
    <g id="Page-1" stroke="none" stroke-width="1" fill="none" fill-rule="evenodd">
        <g id="Artboard" transform="translate(-950.000000, -570.000000)">
            <g id="Group-10" transform="translate(950.000000, 570.000000)">
                <g id="Group-11">
                    <circle id="Oval" fill="#FFFFFF" cx="25" cy="25" r="25"></circle>
                    <g id="Group-2-Copy-3" transform="translate(9.656652, 8.369099)" fill="#FE5F55" fill-rule="nonzero">
                        <path d="M15.438519,27.6056925 C16.309015,27.6056925 17.0147507,26.8989156 17.0147507,26.0271354 L17.0147507,-1.24377067 C17.0147507,-2.11555094 16.309015,-2.82232781 15.438519,-2.82232781 C14.568023,-2.82232781 13.8622873,-2.11555094 13.8622873,-1.24377067 L13.8622873,26.0272833 C13.8624351,26.8989156 14.568023,27.6056925 15.438519,27.6056925 Z" id="Path" transform="translate(15.438519, 12.391682) rotate(-270.000000) translate(-15.438519, -12.391682) "></path>
                        <path d="M15.438519,45.1807998 C16.309015,45.1807998 17.0147507,44.4740229 17.0147507,43.6022426 L17.0147507,16.3313366 C17.0147507,15.4595564 16.309015,14.7527795 15.438519,14.7527795 C14.568023,14.7527795 13.8622873,15.4595564 13.8622873,16.3313366 L13.8622873,43.6023906 C13.8624351,44.4740229 14.568023,45.1807998 15.438519,45.1807998 Z" id="Path-Copy-4" transform="translate(15.438519, 29.966790) rotate(-270.000000) translate(-15.438519, -29.966790) "></path>
                        <path d="M15.3423246,27.0386266 C16.2141049,27.0386266 16.9208818,26.3328909 16.9208818,25.4623949 L16.9208818,16.8981201 C16.9208818,16.0276241 16.2141049,15.3218884 15.3423246,15.3218884 C14.4705443,15.3218884 13.7637675,16.0276241 13.7637675,16.8981201 L13.7637675,25.4625427 C13.7639155,26.3328909 14.4705443,27.0386266 15.3423246,27.0386266 Z" id="Path-Copy" transform="translate(15.342325, 21.180258) rotate(-180.000000) translate(-15.342325, -21.180258) "></path>
                        <path d="M25.7224229,27.0386266 C26.5942032,27.0386266 27.30098,26.3328909 27.30098,25.4623949 L27.30098,16.8981201 C27.30098,16.0276241 26.5942032,15.3218884 25.7224229,15.3218884 C24.8506426,15.3218884 24.1438657,16.0276241 24.1438657,16.8981201 L24.1438657,25.4625427 C24.1440137,26.3328909 24.8506426,27.0386266 25.7224229,27.0386266 Z" id="Path-Copy-2" transform="translate(25.722423, 21.180258) rotate(-180.000000) translate(-25.722423, -21.180258) "></path>
                        <path d="M23.0655951,12.4535055 C23.9363558,12.454025 24.6418849,11.7478839 24.6413654,10.8763683 L24.634184,-1.1713033 C24.6336645,-2.04281887 23.9272931,-2.74980232 23.0565324,-2.75032181 C22.1857717,-2.75084131 21.4802426,-2.0447002 21.4807621,-1.17318462 L21.4879435,10.8746349 C21.4886108,11.7460026 22.1948344,12.452986 23.0655951,12.4535055 Z" id="Path-Copy-7" transform="translate(23.061064, 4.851592) rotate(-243.000000) translate(-23.061064, -4.851592) "></path>
                        <path d="M7.72110201,12.4535055 C8.59186271,12.454025 9.29739183,11.7478839 9.29687234,10.8763683 L9.28969095,-1.1713033 C9.28917145,-2.04281887 8.5828,-2.74980232 7.71203929,-2.75032181 C6.84127859,-2.75084131 6.13574947,-2.0447002 6.13626897,-1.17318462 L6.14345044,10.8746349 C6.14411766,11.7460026 6.8503413,12.452986 7.72110201,12.4535055 Z" id="Path-Copy-8" transform="translate(7.716571, 4.851592) scale(-1, 1) rotate(-243.000000) translate(-7.716571, -4.851592) "></path>
                        <path d="M4.96222634,27.0386266 C5.83400661,27.0386266 6.54078349,26.3328909 6.54078349,25.4623949 L6.54078349,16.8981201 C6.54078349,16.0276241 5.83400661,15.3218884 4.96222634,15.3218884 C4.09044607,15.3218884 3.3836692,16.0276241 3.3836692,16.8981201 L3.3836692,25.4625427 C3.38381718,26.3328909 4.09044607,27.0386266 4.96222634,27.0386266 Z" id="Path-Copy-3" transform="translate(4.962226, 21.180258) rotate(-180.000000) translate(-4.962226, -21.180258) "></path>
                    </g>
                </g>
            </g>
        </g>
    </g>
</svg>