<svg viewBox="0 0 197 147" version="1.1" xmlns="http://www.w3.org/2000/svg" xmlns:xlink="http://www.w3.org/1999/xlink" id="el_A03NvBF11"><style>@-webkit-keyframes kf_el_JhN2F_7A7T_an_a-LsswQmF{63.33%{opacity: 1;}70%{opacity: 0;}76.67%{opacity: 1;}0%{opacity: 1;}100%{opacity: 1;}}@keyframes kf_el_JhN2F_7A7T_an_a-LsswQmF{63.33%{opacity: 1;}70%{opacity: 0;}76.67%{opacity: 1;}0%{opacity: 1;}100%{opacity: 1;}}@-webkit-keyframes kf_el_DlzP30VkNl_an_MXof8KdXO{48.89%{opacity: 1;}55.56%{opacity: 0;}62.22%{opacity: 1;}0%{opacity: 1;}100%{opacity: 1;}}@keyframes kf_el_DlzP30VkNl_an_MXof8KdXO{48.89%{opacity: 1;}55.56%{opacity: 0;}62.22%{opacity: 1;}0%{opacity: 1;}100%{opacity: 1;}}@-webkit-keyframes kf_el_2CI6DlVZNm_an_UCVDLNw-3{33.33%{opacity: 1;}40%{opacity: 0;}46.67%{opacity: 1;}0%{opacity: 1;}100%{opacity: 1;}}@keyframes kf_el_2CI6DlVZNm_an_UCVDLNw-3{33.33%{opacity: 1;}40%{opacity: 0;}46.67%{opacity: 1;}0%{opacity: 1;}100%{opacity: 1;}}@-webkit-keyframes kf_el__3AXx34l5h_an_ZIIlg2Udw{17.78%{opacity: 1;}24.44%{opacity: 0;}31.11%{opacity: 1;}0%{opacity: 1;}100%{opacity: 1;}}@keyframes kf_el__3AXx34l5h_an_ZIIlg2Udw{17.78%{opacity: 1;}24.44%{opacity: 0;}31.11%{opacity: 1;}0%{opacity: 1;}100%{opacity: 1;}}@-webkit-keyframes kf_el_mXU1qX0NzC_an_wwyTWEK_x{0%{opacity: 1;}6.67%{opacity: 0;}13.33%{opacity: 1;}100%{opacity: 1;}}@keyframes kf_el_mXU1qX0NzC_an_wwyTWEK_x{0%{opacity: 1;}6.67%{opacity: 0;}13.33%{opacity: 1;}100%{opacity: 1;}}#el_A03NvBF11 *{-webkit-animation-duration: 3s;animation-duration: 3s;-webkit-animation-iteration-count: infinite;animation-iteration-count: infinite;-webkit-animation-timing-function: cubic-bezier(0, 0, 1, 1);animation-timing-function: cubic-bezier(0, 0, 1, 1);}#el_2cY-k86_5L{stroke: none;stroke-width: 1;fill: none;}#el_wF5T5A_wEn{-webkit-transform: translate(-785px, -15px);transform: translate(-785px, -15px);fill: #FFFFFF;}#el_XLM8oZUfId{-webkit-transform: translate(785px, 15px);transform: translate(785px, 15px);}#el_EUz5s_BJkk{-webkit-transform: translate(186.29145799999998px, -11.297805999999994px) rotate(-270deg);transform: translate(186.29145799999998px, -11.297805999999994px) rotate(-270deg);}#el_ibcGmhyDcX{-webkit-transform: translate(240.891458px, 43.302194px) rotate(-270deg);transform: translate(240.891458px, 43.302194px) rotate(-270deg);}#el_9HQzKgl8he{-webkit-transform: translate(196.993666px, 229.6px) rotate(-180deg);transform: translate(196.993666px, 229.6px) rotate(-180deg);}#el_2JbeM8Q0n_{-webkit-transform: translate(261.26317px, 229.6px) rotate(-180deg);transform: translate(261.26317px, 229.6px) rotate(-180deg);}#el_bfq62PHXCT{-webkit-transform: translate(235.04640609978887px, -15.892064907481796px) rotate(-243deg);transform: translate(235.04640609978887px, -15.892064907481796px) rotate(-243deg);}#el_ypGdgDwBUPN{-webkit-transform: translate(-16.1987175118268px, 26.433904500677983px) scale(-1, 1) rotate(-243deg);transform: translate(-16.1987175118268px, 26.433904500677983px) scale(-1, 1) rotate(-243deg);}#el_5xCCdbFcJbU{-webkit-transform: translate(132.724162px, 229.6px) rotate(-180deg);transform: translate(132.724162px, 229.6px) rotate(-180deg);}#el_2cY-k86_5L_an_nI0P0EoJl{-webkit-transform: translate(98.41877746582031px, 146.99365234375px) translate(-98.41877746582031px, -146.99365234375px) translate(0px, 0px);transform: translate(98.41877746582031px, 146.99365234375px) translate(-98.41877746582031px, -146.99365234375px) translate(0px, 0px);}#el_2cY-k86_5L_an_dAh00WPfV{-webkit-transform: translate(98.41877746582031px, 146.99365234375px) scale(1, 1) translate(-98.41877746582031px, -146.99365234375px);transform: translate(98.41877746582031px, 146.99365234375px) scale(1, 1) translate(-98.41877746582031px, -146.99365234375px);}#el_mXU1qX0NzC{-webkit-animation-fill-mode: backwards;animation-fill-mode: backwards;opacity: 1;-webkit-animation-name: kf_el_mXU1qX0NzC_an_wwyTWEK_x;animation-name: kf_el_mXU1qX0NzC_an_wwyTWEK_x;-webkit-animation-timing-function: cubic-bezier(0, 0, 0.58, 1);animation-timing-function: cubic-bezier(0, 0, 0.58, 1);}#el__3AXx34l5h{-webkit-animation-fill-mode: backwards;animation-fill-mode: backwards;opacity: 1;-webkit-animation-name: kf_el__3AXx34l5h_an_ZIIlg2Udw;animation-name: kf_el__3AXx34l5h_an_ZIIlg2Udw;-webkit-animation-timing-function: cubic-bezier(0, 0, 1, 1);animation-timing-function: cubic-bezier(0, 0, 1, 1);}#el_2CI6DlVZNm{-webkit-animation-fill-mode: backwards;animation-fill-mode: backwards;opacity: 1;-webkit-animation-name: kf_el_2CI6DlVZNm_an_UCVDLNw-3;animation-name: kf_el_2CI6DlVZNm_an_UCVDLNw-3;-webkit-animation-timing-function: cubic-bezier(0, 0, 1, 1);animation-timing-function: cubic-bezier(0, 0, 1, 1);}#el_DlzP30VkNl{-webkit-animation-fill-mode: backwards;animation-fill-mode: backwards;opacity: 1;-webkit-animation-name: kf_el_DlzP30VkNl_an_MXof8KdXO;animation-name: kf_el_DlzP30VkNl_an_MXof8KdXO;-webkit-animation-timing-function: cubic-bezier(0, 0, 1, 1);animation-timing-function: cubic-bezier(0, 0, 1, 1);}#el_JhN2F_7A7T{-webkit-animation-fill-mode: backwards;animation-fill-mode: backwards;opacity: 1;-webkit-animation-name: kf_el_JhN2F_7A7T_an_a-LsswQmF;animation-name: kf_el_JhN2F_7A7T_an_a-LsswQmF;-webkit-animation-timing-function: cubic-bezier(0, 0, 1, 1);animation-timing-function: cubic-bezier(0, 0, 1, 1);}</style>
    <!-- Generator: Sketch 54.1 (76490) - https://sketchapp.com -->
    <title>Group 2 Copy 2</title>
    <desc>Created with Sketch.</desc>
    <g id="el_2cY-k86_5L" fill-rule="evenodd">
        <g id="el_wF5T5A_wEn" fill-rule="nonzero">
            <g id="el_XLM8oZUfId">
                <g id="el_C0n_GPBLnj">
                    <g id="el_wMoNlS7Gon">
                        <path d="M98.4234918,29.3800407 C101.122353,29.3800407 103.310396,27.1875552 103.310396,24.4832143 L103.310396,4.89682648 C103.310396,2.19248554 101.122353,0 98.4234918,0 C95.7246308,0 93.536588,2.19248554 93.536588,4.89682648 L93.536588,24.4836733 C93.5370461,27.1875552 95.7246308,29.3800407 98.4234918,29.3800407 Z" id="el_2CI6DlVZNm"/>
                        <path d="M50.210958,38.7426334 C51.0855337,40.2607552 52.7032011,41.1944896 54.4528107,41.1908171 C55.3108936,41.1940305 56.1547745,40.9677124 56.8960335,40.5348159 C59.2334277,39.1824159 60.0337859,36.187947 58.6845844,33.8458069 L48.9112349,16.8838831 C47.5464569,14.5509242 44.5525583,13.7682216 42.2243268,15.1357707 C39.9176276,16.490466 39.1259739,19.4514232 40.4476874,21.7802505 L50.210958,38.7426334 Z" id="el__3AXx34l5h"/>
                        <path d="M174.598168,73.4501018 C175.456251,73.4533153 176.300132,73.2269971 177.041391,72.7941006 L193.968944,63.0009067 C196.360398,61.7472053 197.28491,58.7885434 196.033749,56.3922338 C194.782588,53.9959242 191.829922,53.0695348 189.438468,54.3232363 C189.316604,54.387046 189.197948,54.4559055 189.08204,54.5298147 L172.154487,64.3230086 C169.817093,65.6754086 169.016735,68.6703365 170.365936,71.0120175 C171.23868,72.5269259 172.851766,73.4602012 174.59771,73.4602012 L174.59771,73.4501018 L174.598168,73.4501018 Z" id="el_DlzP30VkNl"/>
                        <path d="M2.87803936,63.0004477 L19.8055925,72.7936415 C20.5445609,73.2247018 21.3843186,73.451479 22.2391946,73.4496428 C24.9380556,73.4496428 27.1256403,71.2571572 27.1256403,68.5528163 C27.1256403,66.8037857 26.1942561,65.1874244 24.6824174,64.3124501 L7.75486427,54.5192562 C5.4770274,53.0686167 2.45701521,53.7425214 1.00931519,56.0245242 C-0.438384828,58.3065271 0.234154295,61.3331303 2.51153303,62.7837699 C2.62744066,62.857679 2.74609708,62.9265385 2.86796044,62.9903483 L2.87803936,63.0004477 Z" id="el_JhN2F_7A7T"/>
                        <path d="M139.961029,40.5348159 C140.702746,40.9677124 141.546169,41.1940305 142.404252,41.1908171 C144.153403,41.1944896 145.771071,40.2602961 146.646105,38.7426334 L156.419454,21.7807096 C157.753079,19.4298473 156.932105,16.4404281 154.586006,15.1040953 C152.261898,13.7806163 149.307857,14.5734183 147.955448,16.8843422 L138.182099,33.846266 C136.831065,36.1851927 137.6273,39.1792024 139.961029,40.5348159 Z" id="el_mXU1qX0NzC"/>
                    </g>
                </g>
                <path d="M98.7946319,134.596423 C101.498973,134.596423 103.691458,132.40838 103.691458,129.709519 L103.691458,45.2841338 C103.691458,42.5852728 101.498973,40.39723 98.7946319,40.39723 C96.090291,40.39723 93.8978055,42.5852728 93.8978055,45.2841338 L93.8978055,129.709977 C93.8982645,132.40838 96.090291,134.596423 98.7946319,134.596423 Z" id="el_EUz5s_BJkk"/>
                <path d="M98.7946319,189.196423 C101.498973,189.196423 103.691458,187.00838 103.691458,184.309519 L103.691458,99.8841338 C103.691458,97.1852728 101.498973,94.99723 98.7946319,94.99723 C96.090291,94.99723 93.8978055,97.1852728 93.8978055,99.8841338 L93.8978055,184.309977 C93.8982645,187.00838 96.090291,189.196423 98.7946319,189.196423 Z" id="el_ibcGmhyDcX"/>
                <path d="M98.4968329,133 C101.195694,133 103.383737,130.807514 103.383737,128.103174 L103.383737,101.496826 C103.383737,98.7924855 101.195694,96.6 98.4968329,96.6 C95.7979719,96.6 93.6099291,98.7924855 93.6099291,101.496826 L93.6099291,128.103633 C93.6103872,130.807514 95.7979719,133 98.4968329,133 Z" id="el_9HQzKgl8he"/>
                <path d="M130.631585,133 C133.330446,133 135.518489,130.807514 135.518489,128.103174 L135.518489,101.496826 C135.518489,98.7924855 133.330446,96.6 130.631585,96.6 C127.932724,96.6 125.744681,98.7924855 125.744681,101.496826 L125.744681,128.103633 C125.745139,130.807514 127.932724,133 130.631585,133 Z" id="el_2JbeM8Q0n_"/>
                <path d="M122.373202,87.6233144 C125.076414,87.6210977 127.269781,85.4303421 127.271998,82.7303517 L127.302641,45.4061782 C127.304857,42.7061878 125.115084,40.5190264 122.411873,40.5212431 C119.708661,40.5234597 117.515294,42.7142153 117.513078,45.4142058 L117.482435,82.7388376 C117.480677,85.4383693 119.669991,87.6255311 122.373202,87.6233144 Z" id="el_bfq62PHXCT"/>
                <path d="M74.8696565,87.6233144 C77.572868,87.6210977 79.766235,85.4303421 79.7684516,82.7303517 L79.7990945,45.4061782 C79.8013112,42.7061878 77.6115385,40.5190264 74.908327,40.5212431 C72.2051155,40.5234597 70.0117485,42.7142153 70.0095318,45.4142058 L69.9788886,82.7388376 C69.9771311,85.4383693 72.166445,87.6255311 74.8696565,87.6233144 Z" id="el_ypGdgDwBUPN"/>
                <path d="M66.3620811,133 C69.0609422,133 71.248985,130.807514 71.248985,128.103174 L71.248985,101.496826 C71.248985,98.7924855 69.0609422,96.6 66.3620811,96.6 C63.6632201,96.6 61.4751773,98.7924855 61.4751773,101.496826 L61.4751773,128.103633 C61.4756354,130.807514 63.6632201,133 66.3620811,133 Z" id="el_5xCCdbFcJbU"/>
            </g>
        </g>
    </g>
</svg>