<?xml version="1.0" encoding="UTF-8"?>
<svg width="197px" height="147px" viewBox="0 0 197 147" version="1.1" xmlns="http://www.w3.org/2000/svg" xmlns:xlink="http://www.w3.org/1999/xlink">
    <!-- Generator: Sketch 54.1 (76490) - https://sketchapp.com -->
    <title>Group 2 Copy 2</title>
    <desc>Created with Sketch.</desc>
    <g id="Page-1" stroke="none" stroke-width="1" fill="none" fill-rule="evenodd">
        <g id="Artboard" transform="translate(-785.000000, -15.000000)" fill="#FFFFFF" fill-rule="nonzero">
            <g id="Group-2-Copy-2" transform="translate(785.000000, 15.000000)">
                <g id="sunny-copy">
                    <g id="Group">
                        <path d="M98.4234918,29.3800407 C101.122353,29.3800407 103.310396,27.1875552 103.310396,24.4832143 L103.310396,4.89682648 C103.310396,2.19248554 101.122353,0 98.4234918,0 C95.7246308,0 93.536588,2.19248554 93.536588,4.89682648 L93.536588,24.4836733 C93.5370461,27.1875552 95.7246308,29.3800407 98.4234918,29.3800407 Z" id="Path"></path>
                        <path d="M50.210958,38.7426334 C51.0855337,40.2607552 52.7032011,41.1944896 54.4528107,41.1908171 C55.3108936,41.1940305 56.1547745,40.9677124 56.8960335,40.5348159 C59.2334277,39.1824159 60.0337859,36.187947 58.6845844,33.8458069 L48.9112349,16.8838831 C47.5464569,14.5509242 44.5525583,13.7682216 42.2243268,15.1357707 C39.9176276,16.490466 39.1259739,19.4514232 40.4476874,21.7802505 L50.210958,38.7426334 Z" id="Path"></path>
                        <path d="M174.598168,73.4501018 C175.456251,73.4533153 176.300132,73.2269971 177.041391,72.7941006 L193.968944,63.0009067 C196.360398,61.7472053 197.28491,58.7885434 196.033749,56.3922338 C194.782588,53.9959242 191.829922,53.0695348 189.438468,54.3232363 C189.316604,54.387046 189.197948,54.4559055 189.08204,54.5298147 L172.154487,64.3230086 C169.817093,65.6754086 169.016735,68.6703365 170.365936,71.0120175 C171.23868,72.5269259 172.851766,73.4602012 174.59771,73.4602012 L174.59771,73.4501018 L174.598168,73.4501018 Z" id="Path"></path>
                        <path d="M2.87803936,63.0004477 L19.8055925,72.7936415 C20.5445609,73.2247018 21.3843186,73.451479 22.2391946,73.4496428 C24.9380556,73.4496428 27.1256403,71.2571572 27.1256403,68.5528163 C27.1256403,66.8037857 26.1942561,65.1874244 24.6824174,64.3124501 L7.75486427,54.5192562 C5.4770274,53.0686167 2.45701521,53.7425214 1.00931519,56.0245242 C-0.438384828,58.3065271 0.234154295,61.3331303 2.51153303,62.7837699 C2.62744066,62.857679 2.74609708,62.9265385 2.86796044,62.9903483 L2.87803936,63.0004477 Z" id="Path"></path>
                        <path d="M139.961029,40.5348159 C140.702746,40.9677124 141.546169,41.1940305 142.404252,41.1908171 C144.153403,41.1944896 145.771071,40.2602961 146.646105,38.7426334 L156.419454,21.7807096 C157.753079,19.4298473 156.932105,16.4404281 154.586006,15.1040953 C152.261898,13.7806163 149.307857,14.5734183 147.955448,16.8843422 L138.182099,33.846266 C136.831065,36.1851927 137.6273,39.1792024 139.961029,40.5348159 Z" id="Path"></path>
                    </g>
                </g>
                <path d="M98.7946319,134.596423 C101.498973,134.596423 103.691458,132.40838 103.691458,129.709519 L103.691458,45.2841338 C103.691458,42.5852728 101.498973,40.39723 98.7946319,40.39723 C96.090291,40.39723 93.8978055,42.5852728 93.8978055,45.2841338 L93.8978055,129.709977 C93.8982645,132.40838 96.090291,134.596423 98.7946319,134.596423 Z" id="Path" transform="translate(98.794632, 87.496826) rotate(-270.000000) translate(-98.794632, -87.496826) "></path>
                <path d="M98.7946319,189.196423 C101.498973,189.196423 103.691458,187.00838 103.691458,184.309519 L103.691458,99.8841338 C103.691458,97.1852728 101.498973,94.99723 98.7946319,94.99723 C96.090291,94.99723 93.8978055,97.1852728 93.8978055,99.8841338 L93.8978055,184.309977 C93.8982645,187.00838 96.090291,189.196423 98.7946319,189.196423 Z" id="Path-Copy-4" transform="translate(98.794632, 142.096826) rotate(-270.000000) translate(-98.794632, -142.096826) "></path>
                <path d="M98.4968329,133 C101.195694,133 103.383737,130.807514 103.383737,128.103174 L103.383737,101.496826 C103.383737,98.7924855 101.195694,96.6 98.4968329,96.6 C95.7979719,96.6 93.6099291,98.7924855 93.6099291,101.496826 L93.6099291,128.103633 C93.6103872,130.807514 95.7979719,133 98.4968329,133 Z" id="Path-Copy" transform="translate(98.496833, 114.800000) rotate(-180.000000) translate(-98.496833, -114.800000) "></path>
                <path d="M130.631585,133 C133.330446,133 135.518489,130.807514 135.518489,128.103174 L135.518489,101.496826 C135.518489,98.7924855 133.330446,96.6 130.631585,96.6 C127.932724,96.6 125.744681,98.7924855 125.744681,101.496826 L125.744681,128.103633 C125.745139,130.807514 127.932724,133 130.631585,133 Z" id="Path-Copy-2" transform="translate(130.631585, 114.800000) rotate(-180.000000) translate(-130.631585, -114.800000) "></path>
                <path d="M122.373202,87.6233144 C125.076414,87.6210977 127.269781,85.4303421 127.271998,82.7303517 L127.302641,45.4061782 C127.304857,42.7061878 125.115084,40.5190264 122.411873,40.5212431 C119.708661,40.5234597 117.515294,42.7142153 117.513078,45.4142058 L117.482435,82.7388376 C117.480677,85.4383693 119.669991,87.6255311 122.373202,87.6233144 Z" id="Path-Copy-7" transform="translate(122.392538, 64.072279) rotate(-243.000000) translate(-122.392538, -64.072279) "></path>
                <path d="M74.8696565,87.6233144 C77.572868,87.6210977 79.766235,85.4303421 79.7684516,82.7303517 L79.7990945,45.4061782 C79.8013112,42.7061878 77.6115385,40.5190264 74.908327,40.5212431 C72.2051155,40.5234597 70.0117485,42.7142153 70.0095318,45.4142058 L69.9788886,82.7388376 C69.9771311,85.4383693 72.166445,87.6255311 74.8696565,87.6233144 Z" id="Path-Copy-8" transform="translate(74.888992, 64.072279) scale(-1, 1) rotate(-243.000000) translate(-74.888992, -64.072279) "></path>
                <path d="M66.3620811,133 C69.0609422,133 71.248985,130.807514 71.248985,128.103174 L71.248985,101.496826 C71.248985,98.7924855 69.0609422,96.6 66.3620811,96.6 C63.6632201,96.6 61.4751773,98.7924855 61.4751773,101.496826 L61.4751773,128.103633 C61.4756354,130.807514 63.6632201,133 66.3620811,133 Z" id="Path-Copy-3" transform="translate(66.362081, 114.800000) rotate(-180.000000) translate(-66.362081, -114.800000) "></path>
            </g>
        </g>
    </g>
</svg>