<?xml version="1.0" encoding="UTF-8"?>
<svg width="161px" height="125px" viewBox="0 0 141 105" version="1.1" xmlns="http://www.w3.org/2000/svg" xmlns:xlink="http://www.w3.org/1999/xlink">
    <!-- Generator: Sketch 54.1 (76490) - https://sketchapp.com -->
    <title>Group 2</title>
    <desc>Created with Sketch.</desc>
    <g id="Page-1" stroke="none" stroke-width="1" fill="none" fill-rule="evenodd">
        <g id="Artboard" transform="translate(-179.000000, -37.000000)" fill="#FFFFFF" fill-rule="nonzero">
            <g id="Group-2" transform="translate(179.000000, 37.000000)">
                <g id="sunny-copy">
                    <g id="Group">
                        <path d="M70.4452403,20.9857434 C72.3769124,20.9857434 73.9429735,19.4196823 73.9429735,17.4880102 L73.9429735,3.4977332 C73.9429735,1.5660611 72.3769124,0 70.4452403,0 C68.5135682,0 66.9475071,1.5660611 66.9475071,3.4977332 L66.9475071,17.4883381 C66.947835,19.4196823 68.5135682,20.9857434 70.4452403,20.9857434 Z" id="Path"></path>
                        <path d="M35.9377923,27.6733096 C36.5637576,28.7576823 37.7215804,29.4246354 38.9738391,29.4220122 C39.588,29.4243075 40.1919959,29.2626517 40.7225418,28.9534399 C42.395499,27.9874399 42.9683442,25.8485336 42.0026721,24.1755764 L35.0075336,12.0599165 C34.0307128,10.3935173 31.8878717,9.83444399 30.2214725,10.8112648 C28.5704847,11.7789043 28.0038697,13.8938737 28.9498676,15.5573218 L35.9377923,27.6733096 Z" id="Path"></path>
                        <path d="M124.966202,52.4643585 C125.580363,52.4666538 126.184358,52.304998 126.714904,51.9957862 L138.830564,45.0006477 C140.542214,44.1051466 141.203921,41.9918167 140.30842,40.280167 C139.412919,38.5685173 137.299589,37.9068106 135.587939,38.8023116 C135.500717,38.84789 135.41579,38.8970754 135.332831,38.9498676 L123.217171,45.9450061 C121.544214,46.9110061 120.971369,49.0502403 121.937041,50.7228697 C122.561695,51.804947 123.716238,52.4715723 124.965874,52.4715723 L124.965874,52.4643585 L124.966202,52.4643585 Z" id="Path"></path>
                        <path d="M2.0599165,45.0003198 L14.1755764,51.9954582 C14.7044827,52.3033585 15.3055275,52.4653422 15.9173931,52.4640305 C17.8490652,52.4640305 19.4147984,50.8979695 19.4147984,48.9662974 C19.4147984,47.7169898 18.7481731,46.562446 17.6660957,45.9374644 L5.55043585,38.9423259 C3.92010591,37.9061548 1.75857434,38.3875153 0.722403259,40.0175173 C-0.313767821,41.6475193 0.167592668,43.8093788 1.7975947,44.8455499 C1.88055397,44.8983422 1.96548065,44.9475275 2.05270265,44.9931059 L2.0599165,45.0003198 Z" id="Path"></path>
                        <path d="M100.175153,28.9534399 C100.706026,29.2626517 101.309695,29.4243075 101.923855,29.4220122 C103.175786,29.4246354 104.333609,28.7573544 104.959902,27.6733096 L111.955041,15.5576497 C112.909564,13.8784623 112.321963,11.7431629 110.642776,10.7886395 C108.979328,9.84329735 106.865014,10.4095845 105.897047,12.0602444 L98.9019084,24.1759043 C97.9349246,25.8465662 98.5048187,27.9851446 100.175153,28.9534399 Z" id="Path"></path>
                    </g>
                </g>
                <path d="M70.7108787,96.2086119 C72.6425508,96.2086119 74.2086119,94.6425508 74.2086119,92.7108787 L74.2086119,32.2845877 C74.2086119,30.3529156 72.6425508,28.7868545 70.7108787,28.7868545 C68.7792066,28.7868545 67.2131455,30.3529156 67.2131455,32.2845877 L67.2131455,92.7112066 C67.2134734,94.6425508 68.7792066,96.2086119 70.7108787,96.2086119 Z" id="Path" transform="translate(70.710879, 62.497733) rotate(-270.000000) translate(-70.710879, -62.497733) "></path>
                <path d="M70.7108787,135.208612 C72.6425508,135.208612 74.2086119,133.642551 74.2086119,131.710879 L74.2086119,71.2845877 C74.2086119,69.3529156 72.6425508,67.7868545 70.7108787,67.7868545 C68.7792066,67.7868545 67.2131455,69.3529156 67.2131455,71.2845877 L67.2131455,131.711207 C67.2134734,133.642551 68.7792066,135.208612 70.7108787,135.208612 Z" id="Path-Copy-4" transform="translate(70.710879, 101.497733) rotate(-270.000000) translate(-70.710879, -101.497733) "></path>
                <path d="M70.4977332,95 C72.4294053,95 73.9954664,93.4339389 73.9954664,91.5022668 L73.9954664,72.4977332 C73.9954664,70.5660611 72.4294053,69 70.4977332,69 C68.5660611,69 67,70.5660611 67,72.4977332 L67,91.5025947 C67.0003279,93.4339389 68.5660611,95 70.4977332,95 Z" id="Path-Copy" transform="translate(70.497733, 82.000000) rotate(-180.000000) translate(-70.497733, -82.000000) "></path>
                <path d="M93.4977332,95 C95.4294053,95 96.9954664,93.4339389 96.9954664,91.5022668 L96.9954664,72.4977332 C96.9954664,70.5660611 95.4294053,69 93.4977332,69 C91.5660611,69 90,70.5660611 90,72.4977332 L90,91.5025947 C90.0003279,93.4339389 91.5660611,95 93.4977332,95 Z" id="Path-Copy-2" transform="translate(93.497733, 82.000000) rotate(-180.000000) translate(-93.497733, -82.000000) "></path>
                <path d="M87.6007505,62.615187 C89.5324226,62.615187 91.0984837,61.0491259 91.0984837,59.1174539 L91.0984837,32.4143728 C91.0984837,30.4827007 89.5324226,28.9166396 87.6007505,28.9166396 C85.6690784,28.9166396 84.1030173,30.4827007 84.1030173,32.4143728 L84.1030173,59.1177818 C84.1033452,61.0491259 85.6690784,62.615187 87.6007505,62.615187 Z" id="Path-Copy-7" transform="translate(87.600750, 45.765913) rotate(-243.000000) translate(-87.600750, -45.765913) "></path>
                <path d="M53.6007505,62.615187 C55.5324226,62.615187 57.0984837,61.0491259 57.0984837,59.1174539 L57.0984837,32.4143728 C57.0984837,30.4827007 55.5324226,28.9166396 53.6007505,28.9166396 C51.6690784,28.9166396 50.1030173,30.4827007 50.1030173,32.4143728 L50.1030173,59.1177818 C50.1033452,61.0491259 51.6690784,62.615187 53.6007505,62.615187 Z" id="Path-Copy-8" transform="translate(53.600750, 45.765913) scale(-1, 1) rotate(-243.000000) translate(-53.600750, -45.765913) "></path>
                <path d="M47.4977332,95 C49.4294053,95 50.9954664,93.4339389 50.9954664,91.5022668 L50.9954664,72.4977332 C50.9954664,70.5660611 49.4294053,69 47.4977332,69 C45.5660611,69 44,70.5660611 44,72.4977332 L44,91.5025947 C44.0003279,93.4339389 45.5660611,95 47.4977332,95 Z" id="Path-Copy-3" transform="translate(47.497733, 82.000000) rotate(-180.000000) translate(-47.497733, -82.000000) "></path>
            </g>
        </g>
    </g>
</svg>