<?xml version="1.0" encoding="UTF-8"?>
<svg width="158px" height="169px" viewBox="0 0 158 169" version="1.1" xmlns="http://www.w3.org/2000/svg" xmlns:xlink="http://www.w3.org/1999/xlink">
    <!-- Generator: Sketch 54.1 (76490) - https://sketchapp.com -->
    <title>Combined Shape Copy 5</title>
    <desc>Created with Sketch.</desc>
    <g id="Page-1" stroke="none" stroke-width="1" fill="none" fill-rule="evenodd">
        <g id="Artboard" transform="translate(-2101.000000, -2208.000000)" fill="#FFFFFF" fill-rule="nonzero">
            <path d="M2259,2243.45682 L2259,2311.42473 C2259,2312.43469 2258.66445,2313.38453 2258.06524,2314.16605 L2221.80147,2360.66029 C2219.95593,2363.00484 2218.94926,2365.92651 2218.94926,2368.92032 L2218.94926,2370.55549 C2218.94926,2374.1144 2216.07309,2377 2212.52581,2377 L2190.48712,2377 C2186.54436,2377 2183.3566,2373.80179 2183.3566,2369.84612 L2183.3566,2331.22716 C2183.3566,2330.14506 2183.74009,2329.09903 2184.44715,2328.26942 L2216.67229,2290.78066 C2218.33808,2289.14549 2220.51918,2288.25576 2222.85607,2288.25576 C2225.2409,2288.25576 2227.45795,2289.19358 2229.1477,2290.86483 C2232.62308,2294.35159 2232.62308,2300.01458 2229.1477,2303.50135 C2229.06381,2303.58552 2228.96794,2303.6817 2228.88405,2303.78991 L2217.01983,2317.90531 C2215.59373,2319.61262 2215.43793,2322.17359 2216.89999,2323.84483 C2218.75752,2325.98499 2221.95726,2325.8888 2223.68297,2323.83281 L2235.58314,2309.6573 C2238.87876,2306.29077 2240.56851,2301.89022 2240.62843,2297.46564 C2240.62843,2297.38147 2240.6524,2297.30933 2240.6524,2297.22517 L2241.19168,2243.07207 C2241.19168,2237.85394 2245.64975,2233.68184 2250.95869,2234.18682 C2255.60851,2234.63169 2259,2238.79176 2259,2243.45682 Z M2143.31572,2290.76864 L2175.55285,2328.28145 C2176.25991,2329.08701 2176.6434,2330.13304 2176.6434,2331.20312 L2176.6434,2370.08658 C2176.6434,2373.88596 2173.57548,2376.97595 2169.77653,2376.97595 L2148.49284,2376.97595 C2144.3823,2376.97595 2141.05074,2373.63347 2141.05074,2369.50946 L2141.05074,2368.89627 C2141.05074,2365.90246 2140.04407,2362.98079 2138.2225,2360.63624 L2101.93476,2314.142 C2101.33555,2313.36049 2101,2312.41064 2101,2311.40068 L2101,2243.43277 C2101,2238.76771 2104.40347,2234.60764 2109.02932,2234.16278 C2114.33826,2233.6578 2118.79633,2237.82989 2118.79633,2243.09612 L2119.33561,2297.20112 C2119.33561,2297.22517 2119.33561,2297.22517 2119.33561,2297.24922 C2119.35958,2301.91427 2121.15719,2306.30279 2124.40487,2309.63325 L2136.30505,2323.80876 C2138.03075,2325.87678 2141.26645,2325.97297 2143.08803,2323.80876 C2144.5381,2322.10145 2144.34635,2319.51643 2142.90826,2317.80912 L2131.10396,2303.76587 C2131.02008,2303.65766 2130.9242,2303.56147 2130.84031,2303.47731 C2129.17453,2301.80606 2128.23977,2299.54567 2128.23977,2297.16505 C2128.23977,2294.78443 2129.17453,2292.54809 2130.84031,2290.8528 C2134.27974,2287.42615 2139.84034,2287.37806 2143.31572,2290.76864 Z M2206.79287,2288.42409 C2201.29044,2288.42409 2196.783,2283.90332 2196.783,2278.37258 L2196.783,2249.36027 C2196.783,2243.84156 2201.29044,2239.32079 2206.79287,2239.32079 C2212.2953,2239.32079 2216.80273,2243.84156 2216.80273,2249.36027 L2216.80273,2278.3846 C2216.80273,2283.90332 2212.2953,2288.42409 2206.79287,2288.42409 Z M2180.05994,2279.65908 C2174.54552,2279.65908 2170.03809,2275.14058 2170.05008,2269.62464 L2170.05008,2218.03443 C2170.05008,2212.5185 2174.55751,2208 2180.05994,2208 C2185.56237,2208 2190.0698,2212.5185 2190.0698,2218.03443 L2190.0698,2269.62464 C2190.0698,2275.14058 2185.56237,2279.65908 2180.05994,2279.65908 Z M2180.05996,2306.47112 C2174.54555,2306.47112 2170.03811,2301.95034 2170.0501,2296.43163 C2170.0501,2290.91292 2174.55754,2286.39215 2180.05996,2286.39215 C2185.56239,2286.39215 2190.06983,2290.91292 2190.06983,2296.43163 C2190.06983,2301.95034 2185.56239,2306.47112 2180.05996,2306.47112 Z M2153.23111,2257.17544 C2158.73354,2257.17544 2163.24097,2261.69622 2163.24097,2267.21493 L2163.24097,2278.37258 C2163.24097,2283.89129 2158.73354,2288.41207 2153.23111,2288.41207 C2147.72868,2288.41207 2143.22124,2283.89129 2143.22124,2278.37258 L2143.22124,2267.21493 C2143.22124,2261.69622 2147.72868,2257.17544 2153.23111,2257.17544 Z M2153.20713,2230.3634 C2158.70956,2230.3634 2163.217,2234.88418 2163.217,2240.40289 C2163.217,2245.9216 2158.70956,2250.44237 2153.20713,2250.44237 C2147.7047,2250.44237 2143.19727,2245.9216 2143.19727,2240.40289 C2143.19727,2234.88418 2147.7047,2230.3634 2153.20713,2230.3634 Z" id="Combined-Shape-Copy-5"></path>
        </g>
    </g>
</svg>