<svg width="210" height="316" viewBox="-22.5 -33.5 210 316" version="1.1" xmlns="http://www.w3.org/2000/svg" xmlns:xlink="http://www.w3.org/1999/xlink" id="el_VbDipGqFc"><style>@-webkit-keyframes kf_el_GqLD7kFn2__an_HGnBKvsY_{0%{-webkit-transform: translate(3.95733642578125px, 13px) translate(-3.95733642578125px, -13px) translate(0px, 10px);transform: translate(3.95733642578125px, 13px) translate(-3.95733642578125px, -13px) translate(0px, 10px);}13.33%{-webkit-transform: translate(3.95733642578125px, 13px) translate(-3.95733642578125px, -13px) translate(0px, -20px);transform: translate(3.95733642578125px, 13px) translate(-3.95733642578125px, -13px) translate(0px, -20px);}23.33%{-webkit-transform: translate(3.95733642578125px, 13px) translate(-3.95733642578125px, -13px) translate(0px, 10px);transform: translate(3.95733642578125px, 13px) translate(-3.95733642578125px, -13px) translate(0px, 10px);}30%{-webkit-transform: translate(3.95733642578125px, 13px) translate(-3.95733642578125px, -13px) translate(0px, 0px);transform: translate(3.95733642578125px, 13px) translate(-3.95733642578125px, -13px) translate(0px, 0px);}35.56%{-webkit-transform: translate(3.95733642578125px, 13px) translate(-3.95733642578125px, -13px) translate(0px, 10px);transform: translate(3.95733642578125px, 13px) translate(-3.95733642578125px, -13px) translate(0px, 10px);}40%{-webkit-transform: translate(3.95733642578125px, 13px) translate(-3.95733642578125px, -13px) translate(0px, 5px);transform: translate(3.95733642578125px, 13px) translate(-3.95733642578125px, -13px) translate(0px, 5px);}44.44%{-webkit-transform: translate(3.95733642578125px, 13px) translate(-3.95733642578125px, -13px) translate(0px, 10px);transform: translate(3.95733642578125px, 13px) translate(-3.95733642578125px, -13px) translate(0px, 10px);}100%{-webkit-transform: translate(3.95733642578125px, 13px) translate(-3.95733642578125px, -13px) translate(0px, 10px);transform: translate(3.95733642578125px, 13px) translate(-3.95733642578125px, -13px) translate(0px, 10px);}}@keyframes kf_el_GqLD7kFn2__an_HGnBKvsY_{0%{-webkit-transform: translate(3.95733642578125px, 13px) translate(-3.95733642578125px, -13px) translate(0px, 10px);transform: translate(3.95733642578125px, 13px) translate(-3.95733642578125px, -13px) translate(0px, 10px);}13.33%{-webkit-transform: translate(3.95733642578125px, 13px) translate(-3.95733642578125px, -13px) translate(0px, -20px);transform: translate(3.95733642578125px, 13px) translate(-3.95733642578125px, -13px) translate(0px, -20px);}23.33%{-webkit-transform: translate(3.95733642578125px, 13px) translate(-3.95733642578125px, -13px) translate(0px, 10px);transform: translate(3.95733642578125px, 13px) translate(-3.95733642578125px, -13px) translate(0px, 10px);}30%{-webkit-transform: translate(3.95733642578125px, 13px) translate(-3.95733642578125px, -13px) translate(0px, 0px);transform: translate(3.95733642578125px, 13px) translate(-3.95733642578125px, -13px) translate(0px, 0px);}35.56%{-webkit-transform: translate(3.95733642578125px, 13px) translate(-3.95733642578125px, -13px) translate(0px, 10px);transform: translate(3.95733642578125px, 13px) translate(-3.95733642578125px, -13px) translate(0px, 10px);}40%{-webkit-transform: translate(3.95733642578125px, 13px) translate(-3.95733642578125px, -13px) translate(0px, 5px);transform: translate(3.95733642578125px, 13px) translate(-3.95733642578125px, -13px) translate(0px, 5px);}44.44%{-webkit-transform: translate(3.95733642578125px, 13px) translate(-3.95733642578125px, -13px) translate(0px, 10px);transform: translate(3.95733642578125px, 13px) translate(-3.95733642578125px, -13px) translate(0px, 10px);}100%{-webkit-transform: translate(3.95733642578125px, 13px) translate(-3.95733642578125px, -13px) translate(0px, 10px);transform: translate(3.95733642578125px, 13px) translate(-3.95733642578125px, -13px) translate(0px, 10px);}}#el_VbDipGqFc *{-webkit-animation-duration: 3s;animation-duration: 3s;-webkit-animation-iteration-count: infinite;animation-iteration-count: infinite;-webkit-animation-timing-function: cubic-bezier(0, 0, 1, 1);animation-timing-function: cubic-bezier(0, 0, 1, 1);}#el_GqLD7kFn2_{stroke: none;stroke-width: 1;fill: none;}#el_x62JzXeXxv{-webkit-transform: translate(-619px, -620px);transform: translate(-619px, -620px);}#el_1pMFsYczM1{-webkit-transform: translate(622px, 633px);transform: translate(622px, 633px);}#el_CNDG22oe6E{fill: #FFFFFF;}#el_Pbi5NZG70l{stroke: #FE5F55;stroke-width: 26;}#el_5CdIBjUIHk{-webkit-transform: translate(61.935403px, 75.304302px);transform: translate(61.935403px, 75.304302px);fill: #FE5F55;}#el_XwGmP95E_L{-webkit-transform: translate(-25.32822994624712px, 151.3555339252157px) scale(-1, 1) rotate(-199deg);transform: translate(-25.32822994624712px, 151.3555339252157px) scale(-1, 1) rotate(-199deg);}#el_hXw8GToP70{-webkit-transform: translate(96.442622px, 75.304302px) scale(-1, 1);transform: translate(96.442622px, 75.304302px) scale(-1, 1);fill: #FE5F55;}#el_RUiZgH0U_C{-webkit-transform: translate(-25.32822994624712px, 151.3555339252157px) scale(-1, 1) rotate(-199deg);transform: translate(-25.32822994624712px, 151.3555339252157px) scale(-1, 1) rotate(-199deg);}#el_IIYL3oQL6q{-webkit-transform: translate(50px, 35px);transform: translate(50px, 35px);fill: #FE5F55;}#el_leATKo1-Wo{-webkit-transform: translate(54.541218px, -5.830947999999999px) rotate(-270deg);transform: translate(54.541218px, -5.830947999999999px) rotate(-270deg);}#el_SUQau8peDm{-webkit-transform: translate(89.084075px, 28.711909000000002px) rotate(-270deg);transform: translate(89.084075px, 28.711909000000002px) rotate(-270deg);}#el_UVf4rgkM6p{-webkit-transform: translate(59.996px, 83.257142px) rotate(-180deg);transform: translate(59.996px, 83.257142px) rotate(-180deg);}#el_vJR_pL7SrTU{-webkit-transform: translate(100.587264px, 83.257142px) rotate(-180deg);transform: translate(100.587264px, 83.257142px) rotate(-180deg);}#el_CrtlaYu0kJq{-webkit-transform: translate(74.0566797336124px, -26.310945707831422px) rotate(-243deg);transform: translate(74.0566797336124px, -26.310945707831422px) rotate(-243deg);}#el_gTpszpiDlGU{-webkit-transform: translate(-0.25813980269297687px, 0.4212458724827677px) scale(-1, 1) rotate(-243deg);transform: translate(-0.25813980269297687px, 0.4212458724827677px) scale(-1, 1) rotate(-243deg);}#el_mo2-4eZGASJ{-webkit-transform: translate(19.404734px, 83.257142px) rotate(-180deg);transform: translate(19.404734px, 83.257142px) rotate(-180deg);}#el_GqLD7kFn2__an_HGnBKvsY_{-webkit-animation-fill-mode: forwards;animation-fill-mode: forwards;-webkit-transform: translate(3.95733642578125px, 13px) translate(-3.95733642578125px, -13px) translate(0px, 10px);transform: translate(3.95733642578125px, 13px) translate(-3.95733642578125px, -13px) translate(0px, 10px);-webkit-animation-name: kf_el_GqLD7kFn2__an_HGnBKvsY_;animation-name: kf_el_GqLD7kFn2__an_HGnBKvsY_;-webkit-animation-timing-function: cubic-bezier(0.42, 0, 0.58, 1);animation-timing-function: cubic-bezier(0.42, 0, 0.58, 1);}</style>
    <!-- Generator: Sketch 54.1 (76490) - https://sketchapp.com -->
    <title>Group 12</title>
    <desc>Created with Sketch.</desc>
    <g id="el_GqLD7kFn2__an_HGnBKvsY_" data-animator-group="true" data-animator-type="0"><g id="el_GqLD7kFn2_" fill-rule="evenodd">
        <g id="el_x62JzXeXxv">
            <g id="el_1pMFsYczM1">
                <g id="el_o376R88AGv">
                    <g id="el_YxYsfkzAfn">
                        <path d="M80,205.117371 C112.5848,205.117371 139,99.5848002 139,67 C139,34.4151998 112.5848,8 80,8 C47.4151998,8 21,34.4151998 21,67 C21,99.5848002 47.4151998,205.117371 80,205.117371 Z" id="el_CNDG22oe6E"/>
                        <ellipse id="el_Pbi5NZG70l" cx="79.5" cy="68.9" rx="69.0737705" ry="68.9"/>
                        <g id="el_5CdIBjUIHk" fill-rule="nonzero">
                            <path d="M57.1516478,166.56142 C64.4868847,166.567102 70.4290115,160.443043 70.4231441,152.883586 L52.58372,18.8699782 C52.5778526,11.3105208 46.6262121,5.17724869 39.2909752,5.17156664 C31.9557383,5.16588459 26.0136115,11.2899435 26.0194788,18.8494009 C33.3122279,73.6346285 38.7817897,114.723549 42.4281642,142.116163 C42.7461064,144.504636 44.1712263,148.729247 46.7035241,154.789995 C46.7106357,162.34817 49.8164108,166.555738 57.1516478,166.56142 Z" id="el_XwGmP95E_L"/>
                        </g>
                        <g id="el_hXw8GToP70" fill-rule="nonzero">
                            <path d="M57.1516478,166.56142 C64.4868847,166.567102 70.4290115,160.443043 70.4231441,152.883586 L52.58372,18.8699782 C52.5778526,11.3105208 46.6262121,5.17724869 39.2909752,5.17156664 C31.9557383,5.16588459 26.0136115,11.2899435 26.0194788,18.8494009 L43.858904,152.864292 C43.8660155,160.422467 49.8164108,166.555738 57.1516478,166.56142 Z" id="el_RUiZgH0U_C"/>
                        </g>
                    </g>
                </g>
                <g id="el_IIYL3oQL6q" fill-rule="nonzero">
                    <path d="M30.1860833,54.1022487 C31.8969929,54.1022487 33.2840756,52.7203269 33.2840756,51.0157831 L33.2840756,-2.30551287 C33.2840756,-4.01005667 31.8969929,-5.39197844 30.1860833,-5.39197844 C28.4751738,-5.39197844 27.0880911,-4.01005667 27.0880911,-2.30551287 L27.0880911,51.0160725 C27.0883815,52.7203269 28.4751738,54.1022487 30.1860833,54.1022487 Z" id="el_leATKo1-Wo"/>
                    <path d="M30.1860833,88.6451058 C31.8969929,88.6451058 33.2840756,87.263184 33.2840756,85.5586402 L33.2840756,32.2373443 C33.2840756,30.5328005 31.8969929,29.1508787 30.1860833,29.1508787 C28.4751738,29.1508787 27.0880911,30.5328005 27.0880911,32.2373443 L27.0880911,85.5589296 C27.0883815,87.263184 28.4751738,88.6451058 30.1860833,88.6451058 Z" id="el_SUQau8peDm"/>
                    <path d="M29.9979997,53.1428571 C31.7025435,53.1428571 33.0844653,51.7557745 33.0844653,50.0448649 L33.0844653,33.212278 C33.0844653,31.5013684 31.7025435,30.1142857 29.9979997,30.1142857 C28.2934559,30.1142857 26.9115342,31.5013684 26.9115342,33.212278 L26.9115342,50.0451553 C26.9118235,51.7557745 28.2934559,53.1428571 29.9979997,53.1428571 Z" id="el_UVf4rgkM6p"/>
                    <path d="M50.2936324,53.1428571 C51.9981762,53.1428571 53.380098,51.7557745 53.380098,50.0448649 L53.380098,33.212278 C53.380098,31.5013684 51.9981762,30.1142857 50.2936324,30.1142857 C48.5890886,30.1142857 47.2071669,31.5013684 47.2071669,33.212278 L47.2071669,50.0451553 C47.2074562,51.7557745 48.5890886,53.1428571 50.2936324,53.1428571 Z" id="el_vJR_pL7SrTU"/>
                    <path d="M45.0675628,24.4150839 C46.7771604,24.4125089 48.165267,23.0274358 48.167842,21.3215799 L48.2034385,-2.25985849 C48.2060135,-3.96571432 46.8220821,-5.34661217 45.1124846,-5.34403716 C43.402887,-5.34146215 42.0147804,-3.95638904 42.0122054,-2.25053321 L41.9766085,21.3311948 C41.9743241,23.0367606 43.3579653,24.4176589 45.0675628,24.4150839 Z" id="el_CrtlaYu0kJq"/>
                    <path d="M15.0653233,24.4150839 C16.7749209,24.4125089 18.1630275,23.0274358 18.1656025,21.3215799 L18.201199,-2.25985849 C18.203774,-3.96571432 16.8198426,-5.34661217 15.1102451,-5.34403716 C13.4006475,-5.34146215 12.0125409,-3.95638904 12.0099659,-2.25053321 L11.974369,21.3311948 C11.9720846,23.0367606 13.3557258,24.4176589 15.0653233,24.4150839 Z" id="el_gTpszpiDlGU"/>
                    <path d="M9.70236703,53.1428571 C11.4069108,53.1428571 12.7888326,51.7557745 12.7888326,50.0448649 L12.7888326,33.212278 C12.7888326,31.5013684 11.4069108,30.1142857 9.70236703,30.1142857 C7.99782323,30.1142857 6.61590146,31.5013684 6.61590146,33.212278 L6.61590146,50.0451553 C6.6161908,51.7557745 7.99782323,53.1428571 9.70236703,53.1428571 Z" id="el_mo2-4eZGASJ"/>
                </g>
            </g>
        </g>
    </g></g>
</svg>