<?xml version="1.0" encoding="UTF-8"?>
<svg width="183px" height="154px" viewBox="0 0 183 154" version="1.1" xmlns="http://www.w3.org/2000/svg" xmlns:xlink="http://www.w3.org/1999/xlink">
    <!-- Generator: Sketch 54.1 (76490) - https://sketchapp.com -->
    <title>Group 7</title>
    <desc>Created with Sketch.</desc>
    <g id="Page-1" stroke="none" stroke-width="1" fill="none" fill-rule="evenodd">
        <g id="Artboard" transform="translate(-427.000000, -394.000000)">
            <g id="Group-8" transform="translate(335.000000, 314.000000)">
                <g id="Group-7" transform="translate(92.000000, 80.000000)">
                    <g id="Group-5">
                        <circle id="Oval" stroke="#F0B67F" stroke-width="10" cx="91.5" cy="89.5" r="26.5"></circle>
                        <g id="Group" fill="#F0B67F" fill-rule="nonzero">
                            <path d="M91.5,27 C93.985188,27 96,24.985125 96,22.4998594 L96,4.50014063 C96,2.014875 93.985188,0 91.5,0 C89.014812,0 87,2.014875 87,4.50014063 L87,22.5002813 C87.0004219,24.985125 89.014812,27 91.5,27 Z" id="Path"></path>
                            <path d="M46.5869307,38.7100716 C47.3929109,40.1300395 48.8837,41.0034035 50.4960827,40.9999684 C51.2868637,41.0029741 52.0645566,40.7912885 52.7476766,40.3863809 C54.9017422,39.1214201 55.639326,36.3205581 54.3959463,34.1298487 L45.3891486,18.2645952 C44.1314141,16.0824734 41.3723355,15.3503763 39.2267139,16.6295067 C37.1009357,17.8966144 36.3713737,20.6661315 37.5894214,22.8443888 L46.5869307,38.7100716 Z" id="Path"></path>
                            <path d="M162.545668,69.9907702 C163.343705,69.993707 164.128534,69.7868756 164.817921,69.3912529 L180.560933,60.4412857 C182.785039,59.2955322 183.644857,56.5916209 182.481248,54.4016416 C181.31764,52.2116623 178.571593,51.3650381 176.347486,52.5107917 C176.23415,52.5691072 176.123797,52.6320377 176.016,52.699583 L160.272989,61.6495502 C158.099159,62.885504 157.354808,65.6225586 158.609596,67.7626131 C159.421267,69.1470828 160.921474,70 162.545242,70 L162.545242,69.9907702 L162.545668,69.9907702 Z" id="Path"></path>
                            <path d="M2.44794816,60.4501836 L18.1918173,69.4004524 C18.8791123,69.7944102 19.6601486,70.0016681 20.4552462,69.9999899 C22.9653854,69.9999899 25,67.9962172 25,65.5246457 C25,63.9261587 24.1337442,62.4489217 22.7276231,61.6492586 L6.98375392,52.6989898 C4.86519814,51.3732106 2.05636474,51.9891106 0.709897265,54.0746956 C-0.636570206,56.1602807 -0.0110593681,58.9263765 2.10707031,60.2521558 C2.21487293,60.3197034 2.32523213,60.382636 2.43857401,60.4409535 L2.44794816,60.4501836 Z" id="Path"></path>
                            <path d="M136.245439,40.3863586 C136.928894,40.791281 137.706066,41.0029742 138.496746,40.9999684 C140.108501,41.0034036 141.599101,40.1295786 142.4054,38.7099887 L151.411051,22.8441604 C152.63992,20.645213 151.883433,17.848973 149.721621,16.5989953 C147.580072,15.3610407 144.858071,16.1026112 143.611895,18.2642009 L134.606244,34.1300292 C133.361334,36.3178122 134.095025,39.1183462 136.245439,40.3863586 Z" id="Path"></path>
                        </g>
                        <g id="Group-6" transform="translate(84.761381, 91.963193)" fill="#F0B67F" fill-rule="nonzero">
                            <path d="M21.9029845,64.0511487 C24.7178826,64.0511487 27,61.6945996 27,58.787893 L20.1940309,7.26325567 C20.1940309,4.35654908 17.9119136,2 15.0970155,2 C12.2821174,2 10,4.35654908 10,7.26325567 C12.7822771,28.3267062 14.868985,44.124294 16.2601235,54.6560193 C16.3814226,55.5743231 16.9270545,57.1983156 17.8970195,59.5279967 C17.8974974,62.4342099 19.0880864,64.0511487 21.9029845,64.0511487 Z" id="Path-Copy-13" transform="translate(18.500000, 33.025574) scale(-1, 1) rotate(-199.000000) translate(-18.500000, -33.025574) "></path>
                        </g>
                        <g id="Group-6-Copy" transform="translate(79.500000, 124.963193) scale(-1, 1) translate(-79.500000, -124.963193) translate(61.000000, 91.963193)" fill="#F0B67F" fill-rule="nonzero">
                            <path d="M21.9029845,64.0511487 C24.7178826,64.0511487 27,61.6945996 27,58.787893 L20.1940309,7.26325567 C20.1940309,4.35654908 17.9119136,2 15.0970155,2 C12.2821174,2 10,4.35654908 10,7.26325567 L16.8059691,58.7883864 C16.8064469,61.6945996 19.0880864,64.0511487 21.9029845,64.0511487 Z" id="Path-Copy-13" transform="translate(18.500000, 33.025574) scale(-1, 1) rotate(-199.000000) translate(-18.500000, -33.025574) "></path>
                        </g>
                    </g>
                </g>
            </g>
        </g>
    </g>
</svg>