<?xml version="1.0" encoding="UTF-8"?>
<svg width="56px" height="53px" viewBox="0 0 56 53" version="1.1" xmlns="http://www.w3.org/2000/svg" xmlns:xlink="http://www.w3.org/1999/xlink">
    <!-- Generator: Sketch 54.1 (76490) - https://sketchapp.com -->
    <title>school</title>
    <desc>Created with Sketch.</desc>
    <g id="Page-1" stroke="none" stroke-width="1" fill="none" fill-rule="evenodd">
        <g id="Artboard" transform="translate(-204.000000, -97.000000)" fill="#3A506B" fill-rule="nonzero">
            <g id="school" transform="translate(204.000000, 97.000000)">
                <path d="M11.8504508,37.9406331 C12.3071394,37.9406331 12.677266,37.5662516 12.677266,37.1043131 L12.677266,31.5291341 C12.677266,29.4079265 10.9711866,27.6822347 8.87408628,27.6822347 C6.77698584,27.6822347 5.07090643,29.4079265 5.07090643,31.5291341 L5.07090643,37.1043131 C5.07090643,37.5662516 5.44103314,37.9406331 5.89772176,37.9406331 L11.8504508,37.9406331 Z M6.72453698,31.5291341 C6.72453698,30.3300781 7.68908382,29.3548747 8.87408628,29.3548747 C10.0595151,29.3548747 11.0236355,30.3300781 11.0236355,31.5291341 L11.0236355,36.2679932 L6.72453698,36.2679932 L6.72453698,31.5291341 Z" id="Shape"></path>
                <path d="M55.8870005,24.4232177 L55.2119883,17.4022705 C55.115619,16.3973063 54.2900829,15.6394857 53.2918494,15.6394857 L45.5063962,15.6394857 C45.5191886,15.5480469 45.5285697,15.4557454 45.5285697,15.3608562 L45.5285697,13.5765055 C45.5285697,12.5008057 44.6629508,11.625236 43.5990498,11.625236 L42.8912036,11.625236 L28.4541301,0.232047471 C28.1552144,-0.00388183042 27.7356238,-0.00388183042 27.4367081,0.232047471 L22.2063231,4.35973307 C21.8460039,4.64396975 21.7820419,5.1693115 22.0630482,5.53377284 C22.3436282,5.89780268 22.8634259,5.9625 23.2233188,5.67869472 L27.9454191,1.95213222 L40.2030945,11.625236 L15.6898758,11.625236 L20.2098563,8.06300461 C20.5701754,7.77919922 20.6345639,7.25342608 20.3539839,6.88896484 C20.0729775,6.5249349 19.5536062,6.459375 19.1932871,6.74361168 L12.9996346,11.625236 L12.2917884,11.625236 C11.2278875,11.625236 10.3622685,12.5008057 10.3622685,13.5769369 L10.3622685,15.3608562 C10.3622685,15.4557454 10.3712231,15.5484782 10.384442,15.6394857 L2.59898882,15.6394857 C1.60075531,15.6394857 0.775219244,16.3973063 0.678849903,17.4022705 L0.00383771384,24.4232177 C-0.0187621832,24.6582845 0.0579922027,24.891626 0.214485895,25.0663086 C0.371405973,25.2409912 0.593567251,25.340625 0.826815329,25.340625 L1.32273397,25.340625 L1.32273397,29.4864258 C1.32273397,29.9483643 1.69286057,30.3227458 2.14954919,30.3227458 C2.60623782,30.3227458 2.97636452,29.9483643 2.97636452,29.4864258 L2.97636452,25.340625 L14.7718079,25.340625 L14.7718079,39.3225667 L13.9117324,40.1925292 C13.756518,40.3495281 13.6695297,40.5621664 13.6695297,40.7842937 L13.6695297,43.2928223 L12.2917884,43.2928223 C11.8350999,43.2928223 11.4649732,43.6672037 11.4649732,44.1291422 L11.4649732,47.3070719 L2.97636452,47.3070719 L2.97636452,33.3915527 C2.97636452,32.9296143 2.60623782,32.5552328 2.14954919,32.5552328 C1.69286057,32.5552328 1.32273397,32.9296143 1.32273397,33.3915527 L1.32273397,52.1576416 C1.32273397,52.6195801 1.69286057,52.9939615 2.14954919,52.9939615 L53.741289,52.9939615 C54.1975511,52.9939615 54.5676778,52.6195801 54.5676778,52.1576416 L54.5676778,42.3120117 C54.5676778,41.8500732 54.1975511,41.4756917 53.741289,41.4756917 C53.2846004,41.4756917 52.9144737,41.8500732 52.9144737,42.3120117 L52.9144737,47.3070719 L44.425865,47.3070719 L44.425865,44.1291422 C44.425865,43.6672037 44.0557383,43.2928223 43.5990498,43.2928223 L42.2213085,43.2928223 L42.2213085,40.7842937 C42.2213085,40.5621664 42.1343202,40.3495281 41.9791058,40.1925292 L41.1186038,39.3225667 L41.1186038,25.340625 L52.9144737,25.340625 L52.9144737,38.4068848 C52.9144737,38.8688232 53.2846004,39.2432047 53.741289,39.2432047 C54.1975511,39.2432047 54.5676778,38.8688232 54.5676778,38.4068848 L54.5676778,25.340625 L55.0640229,25.340625 C55.297271,25.340625 55.5194322,25.2409912 55.6759259,25.0663086 C55.832846,24.891626 55.9096004,24.6582845 55.8870005,24.4232177 Z M12.0158992,15.3608562 L12.0158992,13.5765055 C12.0158992,13.4229573 12.1395589,13.297876 12.2917884,13.297876 L42.6072125,13.297876 L42.6080652,13.297876 L43.5994761,13.297876 C43.7512793,13.297876 43.8749391,13.4229573 43.8749391,13.5765055 L43.8749391,15.3608562 C43.8749391,15.5144042 43.7512793,15.6394857 43.5994761,15.6394857 L12.2917884,15.6394857 C12.1395589,15.6394857 12.0158992,15.5144042 12.0158992,15.3608562 Z M32.4099659,43.2928223 L32.4099659,33.969515 C32.4099659,32.9485921 31.9102095,31.9979737 31.0731604,31.4273437 L29.6331628,30.4448079 C28.6093445,29.7469401 27.2840521,29.7434896 26.2568226,30.4361817 L24.8304703,31.397583 C23.9853192,31.9677815 23.4808723,32.9214193 23.4808723,33.9492432 L23.4808723,43.2928223 L21.9372564,43.2928223 L21.9372564,40.7838623 C21.9372564,40.5621664 21.850268,40.349528 21.69548,40.1925292 L20.834978,39.3225667 L20.834978,21.2823812 L21.69548,20.4124187 C21.850268,20.2558513 21.9372564,20.0427815 21.9372564,19.8210856 L21.9372564,17.3121256 L33.9535818,17.3121256 L33.9535818,19.8210856 C33.9535818,20.0427815 34.0405702,20.2554199 34.1953582,20.4124187 L35.0558602,21.2828125 L35.0558602,39.3225667 L34.1953582,40.1929606 C34.0405702,40.349528 33.9535818,40.5625977 33.9535818,40.7842937 L33.9535818,43.2932536 L32.4099659,43.2932536 L32.4099659,43.2928223 Z M25.1340765,43.2928223 L25.1340765,33.9492432 C25.1340765,33.4821289 25.3634868,33.0486573 25.7476852,32.7894369 L27.1740376,31.8280355 C27.6409601,31.5131755 28.243482,31.5144693 28.7086989,31.8319173 L30.1486964,32.8140218 C30.529057,33.0736735 30.7563353,33.5054199 30.7563353,33.9699463 L30.7563353,43.2932536 L25.1340765,43.2932536 L25.1340765,43.2928223 Z M20.2840521,17.3121256 L20.2840521,19.4747396 L19.665753,20.0997151 L15.9410331,20.0997151 L15.3231604,19.4747396 L15.3231604,17.3121256 L20.2840521,17.3121256 Z M16.4254386,21.7723552 L19.1813475,21.7723552 L19.1813475,38.8325927 L16.4254386,38.8325927 L16.4254386,21.7723552 Z M36.7094907,21.7723552 L39.4653996,21.7723552 L39.4653996,38.8325927 L36.7094907,38.8325927 L36.7094907,21.7723552 Z M40.5676778,19.4747396 L39.9493787,20.0997151 L36.2250853,20.0997151 L35.6067861,19.4747396 L35.6067861,17.3121256 L40.5676778,17.3121256 L40.5676778,19.4747396 Z M2.14954919,23.667985 L1.73763404,23.667985 L2.32437868,17.5640136 C2.33845029,17.4203857 2.45614035,17.3121256 2.59898882,17.3121256 L13.6695297,17.3121256 L13.6695297,19.8210856 C13.6695297,20.0427815 13.756518,20.2554199 13.9117324,20.4124187 L14.7718079,21.2823812 L14.7718079,23.667985 L2.14954919,23.667985 Z M15.3231604,41.1306396 L15.9410331,40.5052328 L19.665753,40.5052328 L20.2840521,41.1306396 L20.2840521,43.2928223 L15.3231604,43.2928223 L15.3231604,41.1306396 Z M2.97636452,48.9797119 L9.25999025,48.9797119 L9.25999025,51.3213216 L2.97636452,51.3213216 L2.97636452,48.9797119 Z M52.9144737,51.3213216 L46.630848,51.3213216 L46.630848,48.9797119 L52.9144737,48.9797119 L52.9144737,51.3213216 Z M44.9772174,51.3213216 L10.9136208,51.3213216 L10.9136208,48.9797119 L44.9772174,48.9797119 L44.9772174,51.3213216 Z M42.7722344,47.3070719 L13.1181774,47.3070719 L13.1181774,44.9654622 L14.4950658,44.9654622 L14.496345,44.9654622 L31.5822977,44.9654622 L31.5831506,44.9654622 L31.5844299,44.9654622 L42.7726608,44.9654622 L42.7726608,47.3070719 L42.7722344,47.3070719 Z M35.6067861,43.2928223 L35.6067861,41.1306396 L36.2250853,40.5052328 L39.9493787,40.5052328 L40.5676778,41.1306396 L40.5676778,43.2928223 L35.6067861,43.2928223 Z M41.1186038,23.667985 L41.1186038,21.2823812 L41.9791058,20.4124187 C42.1343202,20.2554199 42.2213085,20.0427815 42.2213085,19.8210856 L42.2213085,17.3121256 L53.2918494,17.3121256 C53.4342715,17.3121256 53.5523879,17.4203857 53.5660331,17.5640136 L54.1527778,23.667985 L41.1186038,23.667985 Z" id="Shape"></path>
                <path d="M43.2135722,31.5291341 L43.2135722,37.1043131 C43.2135722,37.5662516 43.5836988,37.9406331 44.0403874,37.9406331 L49.9931164,37.9406331 C50.4498051,37.9406331 50.8199318,37.5662516 50.8199318,37.1043131 L50.8199318,31.5291341 C50.8199318,29.4079265 49.1138524,27.6822347 47.0167519,27.6822347 C44.9196516,27.6822347 43.2135722,29.4079265 43.2135722,31.5291341 L43.2135722,31.5291341 Z M49.1663012,31.5291341 L49.1663012,36.2679932 L44.8667763,36.2679932 L44.8667763,31.5291341 C44.8667763,30.3300781 45.8313231,29.3548747 47.0163255,29.3548747 C48.2017544,29.3548747 49.1663012,30.3300781 49.1663012,31.5291341 Z" id="Shape"></path>
                <path d="M28.0004264,19.2077555 C25.7817983,19.2077555 23.9767909,21.0335124 23.9767909,23.2776448 C23.9767909,25.5217773 25.7817983,27.3475342 28.0004264,27.3475342 C30.2190546,27.3475342 32.0240619,25.5217773 32.0240619,23.2776448 C32.0240619,21.0335124 30.2190546,19.2077555 28.0004264,19.2077555 Z M28.0004264,25.6753255 C26.6934698,25.6753255 25.6304216,24.5996256 25.6304216,23.2776448 C25.6304216,21.9556641 26.6934698,20.8803955 28.0004264,20.8803955 C29.307383,20.8803955 30.3704313,21.9556641 30.3704313,23.2776448 C30.3704313,24.5996256 29.307383,25.6753255 28.0004264,25.6753255 Z" id="Shape"></path>
            </g>
        </g>
    </g>
</svg>