<?xml version="1.0" encoding="UTF-8"?>
<svg width="104px" height="106px" viewBox="0 0 104 106" version="1.1" xmlns="http://www.w3.org/2000/svg" xmlns:xlink="http://www.w3.org/1999/xlink">
    <!-- Generator: Sketch 54.1 (76490) - https://sketchapp.com -->
    <title>Group 9 Copy 2</title>
    <desc>Created with Sketch.</desc>
    <g id="Page-1" stroke="none" stroke-width="1" fill="none" fill-rule="evenodd">
        <g id="Artboard" transform="translate(-950.000000, -250.000000)">
            <g id="Group-9-Copy-2" transform="translate(950.000000, 249.797230)">
                <path d="M47.0995965,148.199193 C49.8039374,148.199193 51.996423,146.01115 51.996423,143.312289 L51.996423,58.8869038 C51.996423,56.1880428 49.8039374,54 47.0995965,54 C44.3952555,54 42.20277,56.1880428 42.20277,58.8869038 L42.20277,143.312747 C42.2032291,146.01115 44.3952555,148.199193 47.0995965,148.199193 Z" id="Path" fill="#FFFFFF" fill-rule="nonzero" transform="translate(47.099596, 101.099596) rotate(-270.000000) translate(-47.099596, -101.099596) "></path>
                <path d="M47.0995965,88.1991929 C49.8039374,88.1991929 51.996423,86.0111501 51.996423,83.3122891 L51.996423,-1.11309617 C51.996423,-3.81195719 49.8039374,-6 47.0995965,-6 C44.3952555,-6 42.20277,-3.81195719 42.20277,-1.11309617 L42.20277,83.3127473 C42.2032291,86.0111501 44.3952555,88.1991929 47.0995965,88.1991929 Z" id="Path-Copy-5" fill="#FFFFFF" fill-rule="nonzero" transform="translate(47.099596, 41.099596) rotate(-270.000000) translate(-47.099596, -41.099596) "></path>
                <g id="Group" transform="translate(31.000000, 0.202770)" fill="#FFFFFF" fill-rule="nonzero">
                    <path d="M36.5,10.8 C37.4913591,10.8 38.295082,9.99405 38.295082,8.99994375 L38.295082,1.80005625 C38.295082,0.80595 37.4913591,0 36.5,0 C35.5086409,0 34.704918,0.80595 34.704918,1.80005625 L34.704918,9.0001125 C34.7050863,9.99405 35.5086409,10.8 36.5,10.8 Z" id="Path"></path>
                    <path d="M18.5838576,15.4840287 C18.9053688,16.0520158 19.5000552,16.4013614 20.1432461,16.3999874 C20.4586943,16.4011896 20.7689215,16.3165154 21.0414229,16.1545523 C21.900695,15.648568 22.1949224,14.5282232 21.6989294,13.6519395 L18.1060538,7.30583809 C17.6043346,6.43298937 16.5037185,6.14015052 15.6478148,6.65180269 C14.7998268,7.15864577 14.5087993,8.26645258 14.9946872,9.13775552 L18.5838576,15.4840287 Z" id="Path"></path>
                    <path d="M64.8406218,27.9963081 C65.1589644,27.9974828 65.472038,27.9147502 65.7470397,27.7565012 L72.0270387,24.1765143 C72.9142506,23.7182129 73.2572379,22.6366484 72.7930663,21.7606567 C72.3288947,20.8846649 71.2334769,20.5460153 70.3462649,21.0043167 C70.3010545,21.0276429 70.2570338,21.0528151 70.2140329,21.0798332 L63.934034,24.6598201 C63.0668778,25.1542016 62.7699507,26.2490234 63.2704946,27.1050452 C63.594276,27.6588331 64.1927192,28 64.8404519,28 L64.8404519,27.9963081 L64.8406218,27.9963081 Z" id="Path"></path>
                    <path d="M0.976503909,24.1800734 L7.25684516,27.7601809 C7.531012,27.9177641 7.84257295,28.0006672 8.15974302,27.999996 C9.16105537,27.999996 9.9726776,27.1984869 9.9726776,26.2098583 C9.9726776,25.5704635 9.627122,24.9795687 9.06621031,24.6597035 L2.78586905,21.0795959 C1.9407621,20.5492842 0.820298501,20.7956442 0.283183062,21.6298782 C-0.253932377,22.4641123 -0.0044116605,23.5705506 0.840525317,24.1008623 C0.883528547,24.1278814 0.927551616,24.1530544 0.972764498,24.1763814 L0.976503909,24.1800734 Z" id="Path"></path>
                    <path d="M54.3492735,16.1545435 C54.6219086,16.3165124 54.9319279,16.4011897 55.2473359,16.3999874 C55.8902765,16.4013614 56.4848872,16.0518314 56.8065259,15.4839955 L60.398944,9.13766417 C60.8891483,8.25808522 60.5873805,7.1395892 59.7250182,6.63959812 C58.8707391,6.1444163 57.7849138,6.44104446 57.2878051,7.30568036 L53.6953871,13.6520117 C53.1987836,14.5271249 53.491458,15.6473385 54.3492735,16.1545435 Z" id="Path"></path>
                </g>
                <path d="M23.7521335,69.8517299 C26.4564744,69.8517299 28.64896,67.6636871 28.64896,64.9648261 L28.64896,53.2343668 C28.64896,50.5355058 26.4564744,48.347463 23.7521335,48.347463 C21.0477925,48.347463 18.855307,50.5355058 18.855307,53.2343668 L18.855307,64.9652843 C18.8557661,67.6636871 21.0477925,69.8517299 23.7521335,69.8517299 Z" id="Path-Copy-11" fill="#FFFFFF" fill-rule="nonzero" transform="translate(23.752133, 59.099596) rotate(-270.000000) translate(-23.752133, -59.099596) "></path>
                <path d="M67.7521335,46.8517299 C70.4564744,46.8517299 72.64896,44.6636871 72.64896,41.9648261 L72.64896,30.2343668 C72.64896,27.5355058 70.4564744,25.347463 67.7521335,25.347463 C65.0477925,25.347463 62.855307,27.5355058 62.855307,30.2343668 L62.855307,41.9652843 C62.8557661,44.6636871 65.0477925,46.8517299 67.7521335,46.8517299 Z" id="Path-Copy-12" fill="#FFFFFF" fill-rule="nonzero" transform="translate(67.752133, 36.099596) rotate(-270.000000) translate(-67.752133, -36.099596) "></path>
                <circle id="Oval" stroke="#FFFFFF" stroke-width="9" cx="59.5" cy="71.70277" r="12.5"></circle>
                <path d="M4.89682648,92.20277 C7.60116741,92.20277 9.79365295,90.0319137 9.79365295,87.3542516 L9.79365295,55.0512884 C9.79365295,52.3736263 7.60116741,50.20277 4.89682648,50.20277 C2.19248554,50.20277 1.00664513e-18,52.3736263 0,55.0512884 L2.78352358e-13,87.3547061 C0.000459063137,90.0319137 2.19248554,92.20277 4.89682648,92.20277 Z" id="Path-Copy-6" fill="#FFFFFF" fill-rule="nonzero"></path>
                <path d="M88.8968265,92.20277 C91.6011674,92.20277 93.793653,90.0319137 93.793653,87.3542516 L93.793653,55.0512884 C93.793653,52.3736263 91.6011674,50.20277 88.8968265,50.20277 C86.1924855,50.20277 84,52.3736263 84,55.0512884 L84,87.3547061 C84.0004591,90.0319137 86.1924855,92.20277 88.8968265,92.20277 Z" id="Path-Copy-10" fill="#FFFFFF" fill-rule="nonzero"></path>
            </g>
        </g>
    </g>
</svg>