<?xml version="1.0" encoding="UTF-8"?>
<svg width="51px" height="51px" viewBox="0 0 91 91" version="1.1" xmlns="http://www.w3.org/2000/svg" xmlns:xlink="http://www.w3.org/1999/xlink">
    <!-- Generator: Sketch 54.1 (76490) - https://sketchapp.com -->
    <title>Group 3</title>
    <desc>Created with Sketch.</desc>
    <g id="Page-1" stroke="none" stroke-width="1" fill="none" fill-rule="evenodd">
        <g id="Artboard" transform="translate(-87.000000, -98.000000)">
            <g id="Group-3" transform="translate(90.000000, 101.000000)">
                <path d="M42.7108787,74.8902407 C44.6425508,74.8902407 46.2086119,73.3241796 46.2086119,71.3925075 L46.2086119,29.2845877 C46.2086119,27.3529156 44.6425508,25.7868545 42.7108787,25.7868545 C40.7792066,25.7868545 39.2131455,27.3529156 39.2131455,29.2845877 L39.2131455,71.3928354 C39.2134734,73.3241796 40.7792066,74.8902407 42.7108787,74.8902407 Z" id="Path-Copy-4" fill="#FFFFFF" fill-rule="nonzero" transform="translate(42.710879, 50.338548) rotate(-180.000000) translate(-42.710879, -50.338548) "></path>
                <path d="M28.3875066,43.2367803 C30.3191787,43.2367803 31.8852398,41.6707192 31.8852398,39.7390471 L31.8852398,13.035966 C31.8852398,11.1042939 30.3191787,9.53823284 28.3875066,9.53823284 C26.4558345,9.53823284 24.8897734,11.1042939 24.8897734,13.035966 L24.8897734,39.739375 C24.8901013,41.6707192 26.4558345,43.2367803 28.3875066,43.2367803 Z" id="Path-Copy-8" fill="#FFFFFF" fill-rule="nonzero" transform="translate(28.387507, 26.387507) scale(-1, 1) rotate(-225.000000) translate(-28.387507, -26.387507) "></path>
                <path d="M56.3875066,43.2367803 C58.3191787,43.2367803 59.8852398,41.6707192 59.8852398,39.7390471 L59.8852398,13.035966 C59.8852398,11.1042939 58.3191787,9.53823284 56.3875066,9.53823284 C54.4558345,9.53823284 52.8897734,11.1042939 52.8897734,13.035966 L52.8897734,39.739375 C52.8901013,41.6707192 54.4558345,43.2367803 56.3875066,43.2367803 Z" id="Path-Copy-9" fill="#FFFFFF" fill-rule="nonzero" transform="translate(56.387507, 26.387507) scale(-1, -1) rotate(-225.000000) translate(-56.387507, -26.387507) "></path>
                <circle id="Oval" stroke="#FFFFFF" stroke-width="6" cx="42.5" cy="42.5" r="42.5"></circle>
            </g>
        </g>
    </g>
</svg>