<?xml version="1.0" encoding="UTF-8"?>
<svg width="569px" height="569px" viewBox="0 0 569 569" version="1.1" xmlns="http://www.w3.org/2000/svg" xmlns:xlink="http://www.w3.org/1999/xlink">
    <!-- Generator: Sketch 54.1 (76490) - https://sketchapp.com -->
    <title>Group 19</title>
    <desc>Created with Sketch.</desc>
    <g id="Page-1" stroke="none" stroke-width="1" fill="none" fill-rule="evenodd">
        <g id="Artboard" transform="translate(-5945.000000, -2311.000000)">
            <g id="Group-19" transform="translate(5945.000000, 2311.000000)">
                <g id="Group-16-Copy-2" fill="#FFFFFF" stroke="#000000">
                    <rect id="Rectangle" x="0.5" y="0.5" width="568" height="568"></rect>
                    <rect id="Rectangle-Copy" stroke-width="73" x="92.5" y="92.5" width="384" height="384"></rect>
                </g>
                <g id="bed" transform="translate(177.000000, 191.000000)" fill="#000000" fill-rule="nonzero">
                    <path d="M212.4,107.884615 L208.8,107.884615 L208.8,97.0961538 C208.79055,89.9550913 204.552,83.496399 198,80.6401538 L198,25.1730769 C197.9991,23.7436058 197.1513,22.4507885 195.84,21.879 C197.24445,19.6305048 197.99235,17.0349808 198,14.3846154 C198,6.44026202 191.55285,0 183.6,0 C175.64715,0 169.2,6.44026202 169.2,14.3846154 C169.21485,16.9172067 169.90605,19.3999014 171.2016,21.5769231 L44.7984,21.5769231 C46.09395,19.3999014 46.78515,16.9172067 46.8,14.3846154 C46.8,6.44026202 40.35285,0 32.4,0 C24.44715,0 18,6.44026202 18,14.3846154 C18.00765,17.0349808 18.75555,19.6305048 20.16,21.879 C18.8487,22.4507885 18.0009,23.7436058 18,25.1730769 L18,80.6401538 C11.448,83.496399 7.20945,89.9550913 7.2,97.0961538 L7.2,107.884615 L3.6,107.884615 C1.6119,107.884615 0,109.494793 0,111.480769 L0,161.826923 C0,163.812899 1.6119,165.423077 3.6,165.423077 L7.2,165.423077 L7.2,183.403846 C7.2,185.389822 8.8119,187 10.8,187 L25.2,187 C27.1881,187 28.8,185.389822 28.8,183.403846 L28.8,165.423077 L187.2,165.423077 L187.2,183.403846 C187.2,185.389822 188.8119,187 190.8,187 L205.2,187 C207.1881,187 208.8,185.389822 208.8,183.403846 L208.8,165.423077 L212.4,165.423077 C214.3881,165.423077 216,163.812899 216,161.826923 L216,111.480769 C216,109.494793 214.3881,107.884615 212.4,107.884615 Z M183.6,7.19230769 C187.57665,7.19230769 190.8,10.4122139 190.8,14.3846154 C190.8,18.3570168 187.57665,21.5769231 183.6,21.5769231 C179.62335,21.5769231 176.4,18.3570168 176.4,14.3846154 C176.4,10.4122139 179.62335,7.19230769 183.6,7.19230769 Z M32.4,7.19230769 C36.37665,7.19230769 39.6,10.4122139 39.6,14.3846154 C39.6,18.3570168 36.37665,21.5769231 32.4,21.5769231 C28.42335,21.5769231 25.2,18.3570168 25.2,14.3846154 C25.2,10.4122139 28.42335,7.19230769 32.4,7.19230769 Z M25.2,28.7692308 L190.8,28.7692308 L190.8,79.1153846 L176.3064,79.1153846 C178.6887,76.0213437 179.98695,72.2305481 180,68.3269231 L180,61.1346154 C179.9883,51.2092308 171.936,43.1655337 162,43.1538462 L133.2,43.1538462 C123.264,43.1655337 115.2117,51.2092308 115.2,61.1346154 L115.2,68.3269231 C115.21305,72.2305481 116.5113,76.0213437 118.8936,79.1153846 L97.1064,79.1153846 C99.4887,76.0213437 100.78695,72.2305481 100.8,68.3269231 L100.8,61.1346154 C100.7883,51.2092308 92.736,43.1655337 82.8,43.1538462 L54,43.1538462 C44.064,43.1655337 36.0117,51.2092308 36,61.1346154 L36,68.3269231 C36.01305,72.2305481 37.3113,76.0213437 39.6936,79.1153846 L25.2,79.1153846 L25.2,28.7692308 Z M172.8,61.1346154 L172.8,68.3269231 C172.8,74.2853005 167.96475,79.1153846 162,79.1153846 L133.2,79.1153846 C127.23525,79.1153846 122.4,74.2853005 122.4,68.3269231 L122.4,61.1346154 C122.4,55.176238 127.23525,50.3461538 133.2,50.3461538 L162,50.3461538 C167.96475,50.3461538 172.8,55.176238 172.8,61.1346154 Z M93.6,61.1346154 L93.6,68.3269231 C93.6,74.2853005 88.76475,79.1153846 82.8,79.1153846 L54,79.1153846 C48.03525,79.1153846 43.2,74.2853005 43.2,68.3269231 L43.2,61.1346154 C43.2,55.176238 48.03525,50.3461538 54,50.3461538 L82.8,50.3461538 C88.76475,50.3461538 93.6,55.176238 93.6,61.1346154 Z M14.4,97.0961538 C14.4,91.1377764 19.23525,86.3076923 25.2,86.3076923 L190.8,86.3076923 C196.76475,86.3076923 201.6,91.1377764 201.6,97.0961538 L201.6,107.884615 L14.4,107.884615 L14.4,97.0961538 Z M21.6,179.807692 L14.4,179.807692 L14.4,165.423077 L21.6,165.423077 L21.6,179.807692 Z M201.6,179.807692 L194.4,179.807692 L194.4,165.423077 L201.6,165.423077 L201.6,179.807692 Z M208.8,158.230769 L7.2,158.230769 L7.2,115.076923 L208.8,115.076923 L208.8,158.230769 Z" id="Shape"></path>
                    <path d="M21.6,143.846154 C19.6119,143.846154 18,145.456332 18,147.442308 C18,149.428284 19.6119,151.038462 21.6,151.038462 C23.5881,151.038462 25.2,149.428284 25.2,147.442308 C25.2,145.456332 23.5881,143.846154 21.6,143.846154 Z" id="Path"></path>
                    <path d="M198,143.846154 L37.6410304,143.846154 C35.6529304,143.846154 34.0410304,145.456332 34.0410304,147.442308 C34.0410304,149.428284 35.6529304,151.038462 37.6410304,151.038462 L198,151.038462 C199.9881,151.038462 201.6,149.428284 201.6,147.442308 C201.6,145.456332 199.9881,143.846154 198,143.846154 Z" id="Path"></path>
                </g>
            </g>
        </g>
    </g>
</svg>