<?xml version="1.0" encoding="UTF-8"?>
<svg width="569px" height="569px" viewBox="0 0 569 569" version="1.1" xmlns="http://www.w3.org/2000/svg" xmlns:xlink="http://www.w3.org/1999/xlink">
    <!-- Generator: Sketch 54.1 (76490) - https://sketchapp.com -->
    <title>Group 18</title>
    <desc>Created with Sketch.</desc>
    <g id="Page-1" stroke="none" stroke-width="1" fill="none" fill-rule="evenodd">
        <g id="Artboard" transform="translate(-5152.000000, -2932.000000)">
            <g id="Group-18" transform="translate(5152.000000, 2932.000000)">
                <g id="Group-16" fill="#FFFFFF" stroke="#000000">
                    <rect id="Rectangle" x="0.5" y="0.5" width="568" height="568"></rect>
                    <rect id="Rectangle-Copy" stroke-width="73" x="92.5" y="92.5" width="384" height="384"></rect>
                </g>
                <g id="architecture-and-city-copy" transform="translate(170.000000, 174.000000)" fill="#000000" fill-rule="nonzero">
                    <path d="M214.019394,178.341595 L214.019394,168.878169 C214.019394,165.773533 211.497803,163.245848 208.398895,163.245848 C181.233917,163.245848 160.860184,163.245848 147.277695,163.245848 C145.826174,163.245848 143.648892,163.245848 140.74585,163.245848 C137.646942,163.245848 135.127106,165.773533 135.127106,168.878169 L135.127106,192.703838 C135.127106,195.810234 137.646942,198.336159 140.74585,198.336159 L144.172897,198.336159 L144.172897,203.125919 C144.172897,204.992219 145.681991,206.50496 147.543792,206.50496 C149.407349,206.50496 150.916443,204.992219 150.916443,203.125919 L150.916443,198.336159 L197.668533,198.336159 L197.668533,203.125919 C197.668533,204.992219 199.179382,206.50496 201.041183,206.50496 C202.902985,206.50496 204.412079,204.992219 204.412079,203.125919 L204.412079,198.336159 L208.398895,198.336159 C211.497803,198.336159 214.019394,195.810234 214.019394,192.703838 L214.019394,185.101436 L223.256454,185.101436 L223.256454,214.805686 L6.74354564,214.805686 L6.74354564,185.101436 L64.6138003,185.101436 L54.0711977,197.606174 C52.5182341,199.449607 52.1848298,201.950906 53.1973267,204.139104 C54.2098235,206.325542 56.3330842,207.68525 58.7388609,207.68525 L125.863724,207.68525 C128.269501,207.68525 130.392761,206.325542 131.405258,204.139104 C132.41951,201.952666 132.082596,199.449607 130.531387,197.606174 L119.99054,185.101436 L122.959595,185.101436 C124.821396,185.101436 126.332245,183.588695 126.332245,181.722395 C126.332245,179.854336 124.821396,178.341595 122.959595,178.341595 L114.292831,178.341595 C110.660477,174.030283 108.66005,168.547477 108.66005,162.904602 L108.66005,145.047924 C110.415358,145.792032 112.065735,146.455299 113.611182,147.037727 C115.929351,147.911368 123.033294,148.669007 124.158096,148.669007 C132.119446,148.669007 139.866715,145.852846 145.969772,140.737671 C146.387406,140.38763 146.991043,140.38763 147.406921,140.737671 C153.509979,145.852846 161.257248,148.669007 169.220352,148.669007 C187.985763,148.669007 203.253937,133.365698 203.253937,114.553182 L203.253937,71.7953854 C203.253937,52.9828694 187.985763,37.6795606 169.220352,37.6795606 C164.852752,37.6795606 160.595703,38.5027731 156.566772,40.1228129 C156.029816,40.3391701 155.40863,40.0682842 155.152435,39.5036446 C149.644241,27.3366346 137.47673,19.4739003 124.158096,19.4739003 C119.960709,19.4739003 115.859833,20.2355477 111.969528,21.7359754 C111.372909,21.9664047 110.714874,21.7025543 110.476227,21.1343973 C105.152283,8.43265064 92.8338623,0.22515213 79.0958406,0.22515213 C60.3286743,0.22515213 45.0622559,15.5302198 45.0622559,34.3409769 L45.0622559,37.978591 C45.0622559,38.4359313 44.8218537,38.7120943 44.6218108,38.8616093 C44.4480894,38.9935345 44.0830991,39.1923015 43.5812378,39.0445454 C40.4911042,38.1386598 37.2781372,37.6795606 34.0335847,37.6795606 C27.5286865,37.6795606 21.2045288,39.5265119 15.7437134,43.0181288 C14.1749575,44.0225185 13.7134553,46.1122117 14.7154234,47.6865177 C15.7173919,49.2590644 17.8020476,49.7199224 19.3708039,48.7172921 C23.747177,45.9187214 28.8166811,44.4394016 34.0318296,44.4394016 C36.635895,44.4394016 39.2118833,44.8070327 41.6896059,45.5317411 C44.1111753,46.2423775 46.6555786,45.7832784 48.6665346,44.2705375 C50.6599429,42.7718687 51.8040464,40.4781313 51.8040464,37.978591 L51.8040464,34.3409769 C51.8040464,19.2575431 64.0470124,6.98499314 79.0958406,6.98499314 C90.1122283,6.98499314 99.9897768,13.5671747 104.260864,23.7517908 C105.919113,27.707784 110.367432,29.5934331 114.389343,28.0437533 C117.505798,26.8423555 120.792465,26.2337409 124.158096,26.2337409 C134.83757,26.2337409 144.59404,32.5380005 149.012528,42.2969386 C150.762024,46.1614637 155.184021,47.9626808 159.07959,46.3936519 C162.30484,45.0972682 165.71785,44.4376427 169.220352,44.4376427 C184.267425,44.4376427 196.510391,56.7101927 196.510391,71.7936265 L196.510391,114.553182 C196.510391,129.636616 184.267425,141.909166 169.220352,141.909166 C162.834778,141.909166 156.624679,139.650609 151.732407,135.550377 C148.81073,133.100089 144.565964,133.100089 141.644287,135.550377 C136.752014,139.650609 130.541916,141.909166 124.158096,141.909166 C117.772522,141.909166 111.562424,139.650609 106.670151,135.550377 C103.746719,133.100089 99.5054624,133.100089 96.5820312,135.550377 C91.6897583,139.650609 85.4796599,141.909166 79.0958406,141.909166 C75.7495117,141.909166 72.4540708,141.282961 69.3692017,140.102672 C67.6003852,139.413504 66.3082952,138.826824 65.4929316,138.342631 C64.2698863,137.616342 61.9395445,135.830058 61.6078948,135.550377 C58.6862183,133.100089 54.4414519,133.100089 51.5197754,135.550377 C46.6275024,139.650609 40.4174041,141.909166 34.0318296,141.909166 C18.9847566,141.909166 6.74179055,129.636616 6.74179055,114.553182 L6.74179055,71.7936265 C6.74179055,67.274753 7.86308277,62.7963362 9.9845884,58.847379 C10.8672332,57.2044719 10.2548218,55.1552358 8.61587547,54.2686993 C6.97517406,53.3839217 4.93087746,53.9995722 4.04823314,55.642479 C1.4002993,60.5747178 -1.39534218e-13,66.1595461 -1.39534218e-13,71.7953854 L-1.39534218e-13,114.553182 C-1.39534218e-13,133.363939 15.2664185,148.669007 34.0335847,148.669007 C41.9966887,148.669007 49.7422029,145.851087 55.8452605,140.735912 C56.2611391,140.38763 56.8665315,140.38763 57.2841643,140.735912 C58.9494321,142.134318 67.4863435,146.220594 69.3692017,147.263682 C71.7319787,148.085644 73.9245159,148.554085 75.9468133,148.669007 C77.444963,174.820867 71.8837737,176.473536 70.3097534,178.341595 L5.61874367,178.341595 C2.52159107,178.341595 -1.4033219e-13,180.869279 -1.4033219e-13,183.975675 L-1.4033219e-13,215.931447 C-1.4033219e-13,219.037842 2.52159107,221.565527 5.61874367,221.565527 L224.381256,221.565527 C227.480164,221.565527 230,219.037842 230,215.931447 L230,183.975675 C230,180.869279 227.478409,178.341595 224.381256,178.341595 C220.927302,178.341595 217.473348,178.341595 214.019394,178.341595 Z M207.275848,191.578077 L141.868896,191.578077 L141.868896,188.197278 L181.963425,188.197278 C183.826981,188.197278 185.336075,186.684537 185.336075,184.818237 C185.336075,182.950177 183.826981,181.439196 181.963425,181.439196 L141.868896,181.439196 L141.868896,170.005689 L207.275848,170.005689 L207.275848,181.439196 L207.275848,188.197278 L207.275848,191.578077 Z M195.634766,181.697769 C194.74905,181.697769 193.879127,182.059243 193.252678,182.687207 C192.626228,183.31517 192.265625,184.187195 192.265625,185.075051 C192.265625,185.962906 192.626228,186.834931 193.252678,187.462894 C193.879127,188.090858 194.74905,188.452333 195.634766,188.452333 C196.520481,188.452333 197.390404,188.090858 198.016853,187.462894 C198.643303,186.834931 199.003906,185.962906 199.003906,185.075051 C199.003906,184.187195 198.643303,183.31517 198.016853,182.687207 C197.390404,182.059243 196.520481,181.697769 195.634766,181.697769 Z M82.4018098,167.054085 C82.5878142,165.683824 82.6860808,164.297731 82.6860808,162.904602 L82.6860808,148.47024 C89.3611907,147.757844 95.7274627,145.078886 100.907516,140.735912 C101.197052,140.494929 101.574325,140.424569 101.918259,140.517796 L101.918259,162.904602 C101.918259,170.146409 104.485474,177.178895 109.147873,182.710953 L124.500275,200.925409 L60.1040649,200.925409 L75.4564666,182.710953 C77.7622224,179.975707 79.5520784,176.87107 80.7769011,173.557112 C80.89798,173.56063 81.9573841,169.402338 82.4018098,167.054085 Z" id="Shape"></path>
                </g>
            </g>
        </g>
    </g>
</svg>