<?xml version="1.0" encoding="UTF-8"?>
<svg width="569px" height="569px" viewBox="0 0 569 569" version="1.1" xmlns="http://www.w3.org/2000/svg" xmlns:xlink="http://www.w3.org/1999/xlink">
    <!-- Generator: Sketch 54.1 (76490) - https://sketchapp.com -->
    <title>Group 17</title>
    <desc>Created with Sketch.</desc>
    <g id="Page-1" stroke="none" stroke-width="1" fill="none" fill-rule="evenodd">
        <g id="Artboard" transform="translate(-5152.000000, -2311.000000)">
            <g id="Group-17" transform="translate(5152.000000, 2311.000000)">
                <g id="Group-16-Copy-3" fill="#FFFFFF" stroke="#000000">
                    <rect id="Rectangle" x="0.5" y="0.5" width="568" height="568"></rect>
                    <rect id="Rectangle-Copy" stroke-width="73" x="92.5" y="92.5" width="384" height="384"></rect>
                </g>
                <g id="Group-13" transform="translate(170.000000, 200.000000)" fill="#000000" fill-rule="nonzero">
                    <g id="gym">
                        <path d="M227.15,38.4090909 L215.6,38.4090909 L215.6,32.6477273 C215.6,25.22325 209.56705,19.2045455 202.125,19.2045455 C200.123,19.2155881 198.149394,19.6764972 196.35,20.5527045 L196.35,15.3636364 C196.35,6.87858807 189.455131,0 180.95,0 C172.444869,0 165.55,6.87858807 165.55,15.3636364 L165.55,38.4090909 L150.15,38.4090909 L150.15,34.5681818 C150.177912,28.2321222 145.052119,23.072821 138.701062,23.0444943 C135.815969,23.0315313 133.031456,24.1012244 130.9,26.0413636 C126.547575,22.0468182 119.852425,22.0468182 115.5,26.0413636 C111.147575,22.0468182 104.452425,22.0468182 100.1,26.0413636 C95.4078125,21.771233 88.1342,22.1044318 83.8539625,26.7855398 C81.9097125,28.9119631 80.8374875,31.6899006 80.85,34.5681818 L80.85,38.4090909 L65.45,38.4090909 L65.45,15.3636364 C65.45,6.87858807 58.5551312,0 50.05,0 C41.5448687,0 34.65,6.87858807 34.65,15.3636364 L34.65,20.5527045 C32.8506062,19.6764972 30.877,19.2155881 28.875,19.2045455 C21.43295,19.2045455 15.4,25.22325 15.4,32.6477273 L15.4,38.4090909 L3.85,38.4090909 C1.7238375,38.4090909 0,40.128858 0,42.25 L0,65.2954545 C0,67.4165966 1.7238375,69.1363636 3.85,69.1363636 L15.4,69.1363636 L15.4,74.8977273 C15.4,82.3222045 21.43295,88.3409091 28.875,88.3409091 C30.877,88.3298665 32.8506062,87.8689574 34.65,86.99275 L34.65,92.1818182 C34.65,100.666866 41.5448687,107.545455 50.05,107.545455 C58.5551312,107.545455 65.45,100.666866 65.45,92.1818182 L65.45,69.1363636 L73.15,69.1363636 L73.15,81.9765227 C73.1374875,87.0719688 75.1683625,91.9609659 78.79025,95.5541364 L88.55,105.294682 L88.55,165.15 C88.55,167.276296 90.2737037,169 92.4,169 L92.4,169 C94.5262963,169 96.25,167.276296 96.25,165.15 L96.25,103.704545 C96.25,102.685744 95.843825,101.709193 95.12195,100.989023 L84.23415,90.1230909 C82.0738187,87.9587386 80.8577,85.0310057 80.85,81.9765227 L80.85,57.6136364 L103.39945,57.6136364 C104.857156,57.5939517 106.238344,58.2617898 107.12625,59.4150227 C107.1532,59.4534318 107.184,59.4918409 107.21095,59.5340909 C107.376019,59.796233 107.505475,60.0790199 107.59595,60.37525 C107.668619,60.611946 107.717706,60.8548835 107.74225,61.1011818 C107.7692,61.3421989 107.7692,61.5860966 107.74225,61.8271136 C107.733587,61.9562642 107.716744,62.0844545 107.6922,62.2112045 C107.605094,62.6159403 107.455425,63.0043523 107.24945,63.3634773 C106.578106,64.5527188 105.318194,65.2901733 103.95,65.2954545 L92.4,65.2954545 C90.2738375,65.2954545 88.55,67.0152216 88.55,69.1363636 L88.55,76.8181818 C88.5495187,78.4721733 89.610675,79.9403608 91.1834,80.4632045 L99.6534,83.2862727 C106.5295,85.5639318 111.65,95.9459091 111.65,103.704545 L111.65,103.704545 C111.65,105.825821 113.369634,107.545455 115.490909,107.545455 L115.509091,107.545455 C117.630366,107.545455 119.35,105.825821 119.35,103.704545 L119.35,103.704545 C119.35,93.1382045 112.7588,79.5375455 102.10585,75.9962273 L96.25,74.0488864 L96.25,72.9772727 L103.95,72.9772727 C107.190256,72.9460653 110.266406,71.5513352 112.42,69.1363636 L146.3,69.1363636 L146.3,83.2209773 C146.295187,85.7132472 145.485244,88.137821 143.99,90.1346136 L135.52,101.4 C135.019981,102.064957 134.75,102.873469 134.75,103.704545 L134.75,165.15 C134.75,167.276296 136.473704,169 138.6,169 L138.6,169 C140.726296,169 142.45,167.276296 142.45,165.15 L142.45,104.983568 L150.15,94.7437045 C152.641912,91.4160369 153.9923,87.3749205 154,83.2209773 L154,69.1363636 L165.55,69.1363636 L165.55,92.1818182 C165.55,100.666866 172.444869,107.545455 180.95,107.545455 C189.455131,107.545455 196.35,100.666866 196.35,92.1818182 L196.35,86.99275 C198.149394,87.8689574 200.123,88.3298665 202.125,88.3409091 C209.56705,88.3409091 215.6,82.3222045 215.6,74.8977273 L215.6,69.1363636 L227.15,69.1363636 C229.276162,69.1363636 231,67.4165966 231,65.2954545 L231,42.25 C231,40.128858 229.276162,38.4090909 227.15,38.4090909 Z M15.4,61.4545455 L7.7,61.4545455 L7.7,46.0909091 L15.4,46.0909091 L15.4,61.4545455 Z M34.65,74.8977273 C34.65,78.0794403 32.0642437,80.6590909 28.875,80.6590909 C25.6857562,80.6590909 23.1,78.0794403 23.1,74.8977273 L23.1,32.6477273 C23.1,29.4660142 25.6857562,26.8863636 28.875,26.8863636 C32.0642438,26.8863636 34.65,29.4660142 34.65,32.6477273 L34.65,74.8977273 Z M57.75,92.1818182 C57.75,96.4245824 54.3028062,99.8636364 50.05,99.8636364 C45.7971937,99.8636364 42.35,96.4245824 42.35,92.1818182 L42.35,15.3636364 C42.35,11.1208722 45.7971937,7.68181818 50.05,7.68181818 C54.3028062,7.68181818 57.75,11.1208722 57.75,15.3636364 L57.75,92.1818182 Z M77,49.9318182 C74.8738375,49.9318182 73.15,51.6515852 73.15,53.7727273 L73.15,61.4545455 L65.45,61.4545455 L65.45,46.0909091 L80.85,46.0909091 C80.8543312,46.8168409 80.9274812,47.5413324 81.06945,48.2533409 C81.1118,48.4799545 81.18495,48.6873636 81.23885,48.9062955 C81.3274,49.2481364 81.39285,49.6015 81.50835,49.9318182 L77,49.9318182 Z M96.25,46.0909091 C96.25,48.2120511 94.5261625,49.9318182 92.4,49.9318182 C90.2738375,49.9318182 88.55,48.2120511 88.55,46.0909091 L88.55,34.5681818 C88.55,32.4470398 90.2738375,30.7272727 92.4,30.7272727 C94.5261625,30.7272727 96.25,32.4470398 96.25,34.5681818 L96.25,46.0909091 Z M111.65,46.0909091 C111.65,48.2120511 109.926162,49.9318182 107.8,49.9318182 C105.673837,49.9318182 103.95,48.2120511 103.95,46.0909091 L103.95,34.5681818 C103.95,32.4470398 105.673837,30.7272727 107.8,30.7272727 C109.926162,30.7272727 111.65,32.4470398 111.65,34.5681818 L111.65,46.0909091 Z M134.75,34.5681818 C134.75,32.4470398 136.473837,30.7272727 138.6,30.7272727 C140.726162,30.7272727 142.45,32.4470398 142.45,34.5681818 L142.45,46.0909091 C142.45,48.2120511 140.726162,49.9318182 138.6,49.9318182 C136.473837,49.9318182 134.75,48.2120511 134.75,46.0909091 L134.75,34.5681818 Z M119.35,34.5681818 C119.35,32.4470398 121.073837,30.7272727 123.2,30.7272727 C125.326162,30.7272727 127.05,32.4470398 127.05,34.5681818 L127.05,46.0909091 C127.05,48.2120511 125.326162,49.9318182 123.2,49.9318182 C121.073837,49.9318182 119.35,48.2120511 119.35,46.0909091 L119.35,34.5681818 Z M165.55,61.4545455 L165.55,61.4545455 L115.5,61.4545455 C115.5,61.4161364 115.5,61.3854091 115.5,61.347 C115.496631,60.5831392 115.416744,59.8211989 115.2613,59.0731818 C115.2382,58.9694773 115.18815,58.8734545 115.16505,58.7659091 C115.09575,58.4855227 114.99565,58.2243409 114.9071,57.9516364 C114.744437,57.4595199 114.547606,56.9798864 114.31805,56.5151364 C114.2064,56.2846818 114.1525,56.0235 114.02545,55.8007273 C114.069244,55.7709602 114.111594,55.7387926 114.1525,55.7047045 C114.3296,55.5894773 114.4836,55.4512045 114.653,55.3206136 C114.94175,55.1055227 115.2459,54.9057955 115.5154,54.6638182 C115.7387,54.8635455 115.99665,55.0210227 116.23535,55.2015455 C116.47405,55.3820682 116.7089,55.5856364 116.96685,55.7469545 C117.330194,55.9706875 117.705569,56.1747358 118.09105,56.3576591 C118.35285,56.4844091 118.59925,56.6342045 118.86105,56.74175 C119.310537,56.9136307 119.771094,57.0562244 120.23935,57.1680909 C120.4819,57.2333864 120.70905,57.3255682 120.9593,57.3755 C122.440106,57.6774915 123.967112,57.6774915 125.4484,57.3755 C125.69865,57.3255682 125.9258,57.2333864 126.16835,57.1680909 C126.636606,57.0562244 127.097162,56.9136307 127.54665,56.74175 C127.82,56.6303636 128.0664,56.4805682 128.31665,56.3576591 C128.703575,56.1747358 129.079912,55.9706875 129.4447,55.7469545 C129.6988,55.5779545 129.9298,55.3859091 130.17235,55.2015455 C130.4149,55.0171818 130.669,54.8635455 130.8923,54.6638182 C131.1156,54.8635455 131.37355,55.0210227 131.61225,55.2015455 C131.85095,55.3820682 132.0858,55.5856364 132.34375,55.7469545 C132.707094,55.9706875 133.082469,56.1747358 133.46795,56.3576591 C133.72975,56.4844091 133.97615,56.6342045 134.23795,56.74175 C134.687437,56.9136307 135.147994,57.0562244 135.61625,57.1680909 C135.8588,57.2333864 136.08595,57.3255682 136.3362,57.3755 C142.570794,58.6396392 148.651869,54.6225284 149.919,48.4031364 C150.073962,47.6421563 150.151444,46.867733 150.15,46.0909091 L165.55,46.0909091 L165.55,61.4545455 L165.55,61.4545455 Z M188.65,92.1818182 C188.65,96.4245824 185.202806,99.8636364 180.95,99.8636364 C176.697194,99.8636364 173.25,96.4245824 173.25,92.1818182 L173.25,15.3636364 C173.25,11.1208722 176.697194,7.68181818 180.95,7.68181818 C185.202806,7.68181818 188.65,11.1208722 188.65,15.3636364 L188.65,92.1818182 Z M207.9,74.8977273 C207.9,78.0794403 205.314244,80.6590909 202.125,80.6590909 C198.935756,80.6590909 196.35,78.0794403 196.35,74.8977273 L196.35,32.6477273 C196.35,29.4660142 198.935756,26.8863636 202.125,26.8863636 C205.314244,26.8863636 207.9,29.4660142 207.9,32.6477273 L207.9,74.8977273 Z M223.3,61.4545455 L215.6,61.4545455 L215.6,46.0909091 L223.3,46.0909091 L223.3,61.4545455 Z" id="Shape"></path>
                    </g>
                    <path d="M115.5,116.412234 C114.49379,116.412234 113.505521,116.821144 112.793848,117.531515 C112.082175,118.241885 111.672515,119.228345 111.672515,120.232713 C111.672515,121.237081 112.082175,122.223541 112.793848,122.93391 C113.505521,123.644281 114.49379,124.053191 115.5,124.053191 C116.50621,124.053191 117.494479,123.644281 118.206152,122.93391 C118.917825,122.223541 119.327485,121.237081 119.327485,120.232713 C119.327485,119.228345 118.917825,118.241885 118.206152,117.531515 C117.494479,116.821144 116.50621,116.412234 115.5,116.412234 Z" id="Path"></path>
                </g>
            </g>
        </g>
    </g>
</svg>