<?xml version="1.0" encoding="UTF-8"?>
<svg width="569px" height="569px" viewBox="0 0 569 569" version="1.1" xmlns="http://www.w3.org/2000/svg" xmlns:xlink="http://www.w3.org/1999/xlink">
    <!-- Generator: Sketch 54.1 (76490) - https://sketchapp.com -->
    <title>Group 16 Copy 4</title>
    <desc>Created with Sketch.</desc>
    <g id="Page-1" stroke="none" stroke-width="1" fill="none" fill-rule="evenodd">
        <g id="Artboard" transform="translate(-5945.000000, -2932.000000)">
            <g id="Group-16-Copy-4" transform="translate(5945.000000, 2932.000000)">
                <g id="Group-16-Copy">
                    <rect id="Rectangle" stroke="#000000" fill="#FFFFFF" x="0.5" y="0.5" width="568" height="568"></rect>
                    <rect id="Rectangle-Copy" stroke="#000000" stroke-width="73" fill="#FFFFFF" x="92.5" y="92.5" width="384" height="384"></rect>
                    <g id="wisdom-copy" transform="translate(170.000000, 170.000000)" fill="#000000" fill-rule="nonzero">
                        <path d="M230,185.15358 L230,185.106201 L229.998245,185.106201 C229.998245,184.699097 229.945602,184.284973 229.828034,183.876114 L209.183273,111.372909 C208.634033,109.442673 206.870499,108.112564 204.863052,108.112564 C199.898834,108.112564 194.920578,106.956177 190.463486,104.769745 L178.539886,98.9211272 C170.666275,95.0588989 161.86966,93.0163574 153.097611,93.0163574 C140.837097,93.0163574 129.110031,96.8224334 119.18335,104.020462 L115,107.054443 L110.81665,104.020462 C100.889969,96.8224334 89.1629028,93.0163574 76.9006348,93.0163574 C68.1303404,93.0163574 59.3337249,95.0588989 51.4601138,98.9211272 L39.5365144,104.769745 C35.0794221,106.956177 30.1011655,108.112564 25.1369475,108.112564 C23.1295012,108.112564 21.3659668,109.442673 20.8167268,111.372909 L0.171966328,183.876114 C0.0543976953,184.286728 0.00175476074,184.699097 0.00175476074,185.106201 C0.00175476074,185.106201 0.00175476074,185.106201 1.13686838e-13,185.106201 L1.13686838e-13,185.155334 L1.13686838e-13,185.181656 L1.13686838e-13,207.510986 C1.13686838e-13,209.992218 2.01095559,212.003174 4.4921875,212.003174 L96.1310579,212.003174 C96.5995786,222.00531 104.883804,230 115,230 C125.116196,230 133.400421,222.00531 133.868942,212.003174 L160.371094,212.003174 C162.852326,212.003174 164.863281,209.992218 164.863281,207.510986 C164.863281,205.029754 162.852326,203.018799 160.371094,203.018799 L129.397812,203.018799 C126.91658,203.018799 124.905624,205.029754 124.905624,207.510986 L124.905624,211.110001 C124.905624,216.572571 120.460815,221.015625 115,221.015625 C109.539185,221.015625 105.094376,216.572571 105.094376,211.110001 L105.094376,207.510986 C105.094376,205.029754 103.08342,203.018799 100.602188,203.018799 L8.984375,203.018799 L8.984375,191.368942 L11.7814634,192.314758 C16.0929109,193.772965 20.586853,194.511719 25.1369475,194.511719 C31.464615,194.511719 37.8133391,193.039474 43.4934995,190.252914 L55.4170989,184.402542 C62.0658872,181.140442 69.4955444,179.417267 76.9006348,179.417267 C87.2554778,179.417267 97.1593474,182.630234 105.540085,188.71048 L112.362594,193.65715 C113.148727,194.227448 114.075241,194.513473 115,194.513473 C115.924759,194.513473 116.851273,194.227448 117.637406,193.65715 L124.459915,188.71048 C132.840653,182.630234 142.744522,179.417267 153.099365,179.417267 C160.504456,179.417267 167.934113,181.140442 174.582901,184.404297 L186.5065,190.252914 C192.186661,193.039474 198.535385,194.513473 204.863052,194.513473 C209.414902,194.513473 213.907089,193.772965 218.218537,192.314758 L221.015625,191.368942 L221.015625,203.018799 L196.608658,203.018799 C194.127426,203.018799 192.11647,205.03151 192.11647,207.510986 C192.11647,209.992218 194.127426,212.003174 196.608658,212.003174 L225.507813,212.003174 C227.989044,212.003174 230,209.992218 230,207.510986 L230,185.181656 C230,185.172882 230,185.164108 230,185.15358 L230,185.15358 Z M76.9006348,170.431137 C68.1320954,170.431137 59.3337249,172.473678 51.4601138,176.335907 L39.5365144,182.186279 C35.0794221,184.372711 30.1011655,185.527344 25.1369475,185.527344 C21.5660093,185.527344 18.0424497,184.946518 14.659271,183.804168 L9.9845884,182.221375 L28.5692595,116.953049 C32.7368164,116.603851 36.85524,115.615921 40.7350161,114.054184 L32.6245117,142.533951 C31.9454192,144.920426 33.3299253,147.405167 35.7163999,148.084259 C36.1270142,148.201828 36.5411377,148.25798 36.9482422,148.25798 C38.9048005,148.25798 40.7034302,146.969986 41.2667083,144.994125 L51.5478516,108.884659 L55.4170989,106.986008 C62.0658872,103.725662 69.4955444,102.000732 76.9006348,102.000732 C87.2554778,102.000732 97.1593474,105.213699 105.540085,111.292191 L110.507813,114.894714 L110.507813,181.221161 C100.647812,174.165268 89.0383147,170.431137 76.9006348,170.431137 Z M215.340729,183.804168 C211.959305,184.946518 208.433991,185.527344 204.863052,185.527344 C199.898834,185.527344 194.920578,184.372711 190.463486,182.186279 L178.539886,176.335907 C170.66803,172.473678 161.86966,170.431137 153.099365,170.431137 C140.96344,170.431137 129.352188,174.165268 119.492188,181.221161 L119.492188,114.894714 L124.459915,111.293945 C132.840653,105.213699 142.744522,102.000732 153.099365,102.000732 C160.504456,102.000732 167.934113,103.725662 174.582901,106.987762 L186.5065,112.83638 C191.160126,115.119324 196.261215,116.519623 201.43074,116.953049 L220.015412,182.221375 L215.340729,183.804168 Z" id="Shape"></path>
                        <path d="M178.339844,203.018799 C177.15889,203.018799 175.998993,203.499603 175.163727,204.33487 C174.32846,205.17189 173.847656,206.330032 173.847656,207.510986 C173.847656,208.693695 174.32846,209.851837 175.163727,210.687103 C175.998993,211.52237 177.15889,212.003174 178.339844,212.003174 C179.520798,212.003174 180.680695,211.52237 181.51596,210.687103 C182.351227,209.851837 182.832031,208.693695 182.832031,207.510986 C182.832031,206.326523 182.351227,205.17189 181.51596,204.33487 C180.680695,203.499603 179.520798,203.018799 178.339844,203.018799 Z" id="Path"></path>
                        <path d="M115,73.0980681 C128.766098,73.0980681 139.963226,61.8991853 139.963226,48.134842 C139.963226,34.3704988 128.766098,23.1698608 115,23.1698608 C101.233902,23.1698608 90.0367739,34.3704988 90.0367739,48.134842 C90.0367739,61.8991853 101.235657,73.0980681 115,73.0980681 Z M115,32.1542358 C123.810654,32.1542358 130.978851,39.324188 130.978851,48.134842 C130.978851,56.9454956 123.810654,64.1136931 115,64.1136931 C106.189346,64.1136931 99.0211489,56.9454956 99.0211489,48.134842 C99.0211489,39.324188 106.189346,32.1542358 115,32.1542358 Z" id="Shape"></path>
                        <path d="M115,13.399353 C117.481232,13.399353 119.492188,11.388397 119.492188,8.90716553 L119.492188,4.4921875 C119.492188,2.01095559 117.481232,0 115,0 C112.518768,0 110.507812,2.01095559 110.507812,4.4921875 L110.507812,8.90716553 C110.507812,11.388397 112.518768,13.399353 115,13.399353 Z" id="Path"></path>
                        <path d="M110.507812,87.3625181 L110.507812,91.7774966 C110.507812,94.258728 112.518768,96.2696841 115,96.2696841 C117.481232,96.2696841 119.492188,94.258728 119.492188,91.7774966 L119.492188,87.3625181 C119.492188,84.8812866 117.481232,82.8703306 115,82.8703306 C112.518768,82.8703306 110.507812,84.8812866 110.507812,87.3625181 Z" id="Path"></path>
                        <path d="M154.227677,52.6270295 L158.642655,52.6270295 C161.123886,52.6270295 163.134842,50.6160735 163.134842,48.134842 C163.134842,45.6536101 161.123886,43.6426545 158.642655,43.6426545 L154.227677,43.6426545 C151.7482,43.6426545 149.735489,45.6536101 149.735489,48.134842 C149.735489,50.6160735 151.746445,52.6270295 154.227677,52.6270295 Z" id="Path"></path>
                        <path d="M71.3573455,52.6270295 L75.7723235,52.6270295 C78.2535554,52.6270295 80.264511,50.6160735 80.264511,48.134842 C80.264511,45.6536101 78.2535554,43.6426545 75.7723235,43.6426545 L71.3573455,43.6426545 C68.8778687,43.6426545 66.865158,45.6536101 66.865158,48.134842 C66.865158,50.6160735 68.8778687,52.6270295 71.3573455,52.6270295 Z" id="Path"></path>
                        <path d="M142.739258,24.8877717 C143.888626,24.8877717 145.037995,24.4508364 145.915375,23.5734556 L149.037094,20.4517366 C150.791855,18.6969758 150.791855,15.8525083 149.037094,14.0977476 C147.282333,12.3429868 144.437866,12.3429868 142.683105,14.0977476 L139.561386,17.2194671 C137.80838,18.9742278 137.80838,21.8186948 139.561386,23.5734556 C140.438766,24.4508364 141.588135,24.8877717 142.739258,24.8877717 Z" id="Path"></path>
                        <path d="M84.0846255,72.696228 L80.962906,75.8179475 C79.2098999,77.5727082 79.2098999,80.4171753 80.962906,82.171936 C81.8402864,83.0493164 82.9914094,83.4880064 84.1407778,83.4880064 C85.2901458,83.4880064 86.4395142,83.0493164 87.3168945,82.171936 L90.438614,79.0502166 C92.1916196,77.2954558 92.1916196,74.4509888 90.438614,72.696228 C88.6838533,70.9414673 85.8393862,70.9414673 84.0846255,72.696228 Z" id="Path"></path>
                        <path d="M145.915375,72.696228 C144.160614,70.9414673 141.316147,70.9414673 139.561386,72.696228 C137.80838,74.4509888 137.80838,77.2954558 139.561386,79.0502166 L142.683105,82.171936 C143.560486,83.0493164 144.709854,83.4880064 145.859222,83.4880064 C147.010345,83.4880064 148.159714,83.0493164 149.037094,82.171936 C150.7901,80.4171753 150.7901,77.5727082 149.037094,75.8179475 L145.915375,72.696228 Z" id="Path"></path>
                        <path d="M84.0846255,23.5734556 C84.9620054,24.4508364 86.1113738,24.8895264 87.2624968,24.8895264 C88.4118652,24.8895264 89.5612336,24.4508364 90.438614,23.5734556 C92.1916196,21.8186948 92.1916196,18.9742278 90.438614,17.2194671 L87.3168945,14.0977476 C85.5621338,12.3447419 82.7176667,12.3447419 80.962906,14.0977476 C79.2081453,15.8525083 79.2081453,18.6969758 80.962906,20.4517366 L84.0846255,23.5734556 Z" id="Path"></path>
                        <path d="M31.4856721,158.447876 C30.3047182,158.447876 29.1448211,158.92868 28.3095549,159.763947 C27.4742888,160.599212 26.9934846,161.75911 26.9934846,162.940063 C26.9934846,164.121017 27.4742888,165.280915 28.3095549,166.11618 C29.1448211,166.951447 30.3047182,167.432251 31.4856721,167.432251 C32.666626,167.432251 33.8265227,166.951447 34.6617888,166.11618 C35.4970549,165.280915 35.9778596,164.121017 35.9778596,162.940063 C35.9778596,161.75911 35.4970549,160.599212 34.6617888,159.763947 C33.8265227,158.92868 32.666626,158.447876 31.4856721,158.447876 Z" id="Path"></path>
                    </g>
                </g>
            </g>
        </g>
    </g>
</svg>